<?xml version="1.0" encoding="UTF-8"?>
<svg width="60px" height="60px" viewBox="0 0 60 60" version="1.1" xmlns="http://www.w3.org/2000/svg" xmlns:xlink="http://www.w3.org/1999/xlink">
    <!-- Generator: Sketch 63.1 (92452) - https://sketch.com -->
    <title>icon-bitbucket</title>
    <desc>Created with Sketch.</desc>
    <defs>
        <polygon id="path-1" points="0.0002 0 25.987 0 25.987 21.486 0.0002 21.486"></polygon>
    </defs>
    <g id="icon-bitbucket" stroke="none" stroke-width="1" fill="none" fill-rule="evenodd">
        <rect id="Rectangle" x="0" y="0" width="60" height="60"></rect>
        <g id="Group-8" transform="translate(17.000000, 15.000000)">
            <g id="Group-3">
                <mask id="mask-2" fill="white">
                    <use xlink:href="#path-1"></use>
                </mask>
                <g id="Clip-2"></g>
                <path d="M12.9932,5.648 C8.4072,5.648 4.6712,4.84 4.6712,3.864 C4.6712,2.887 8.4072,2.102 12.9932,2.102 C17.5792,2.102 21.3162,2.909 21.3162,3.885 C21.2952,4.862 17.5792,5.648 12.9932,5.648 M12.9932,18.599 C10.7222,18.599 8.8752,16.752 8.8752,14.48 C8.8752,12.208 10.7222,10.361 12.9932,10.361 C15.2652,10.361 17.1122,12.208 17.1122,14.48 C17.1122,16.752 15.2652,18.599 12.9932,18.599 M12.9932,0 L12.9932,0 C5.8392,0 0.0002,1.932 0.0002,4.31 C0.0002,4.947 1.5502,13.949 2.1862,17.537 C2.4632,19.151 6.6022,21.486 12.9932,21.486 L12.9932,21.465 L12.9932,21.486 C19.3842,21.486 23.5242,19.129 23.8012,17.537 C24.4162,13.97 25.9872,4.947 25.9872,4.31 C25.9662,1.932 20.1272,0 12.9932,0" id="Fill-1" fill="#FFFFFF" mask="url(#mask-2)"></path>
            </g>
            <path d="M22.3145,21.1256 C22.1235,21.1256 21.9535,21.2736 21.9535,21.2736 C21.9535,21.2736 18.7475,23.8006 12.9725,23.8006 C7.1975,23.8006 3.9915,21.2736 3.9915,21.2736 C3.9915,21.2736 3.8425,21.1256 3.6305,21.1256 C3.3965,21.1256 3.1635,21.2736 3.1635,21.6346 L3.1635,21.7406 C3.6515,24.3956 4.0125,26.2846 4.0765,26.5606 C4.5015,28.5146 8.3225,29.9996 12.9295,29.9996 C17.5375,29.9996 21.3585,28.5346 21.7835,26.5606 C21.8465,26.2636 22.2085,24.3956 22.6965,21.7406 L22.6965,21.6346 C22.7815,21.2736 22.5475,21.1256 22.3145,21.1256" id="Fill-4" fill="#FFFFFF"></path>
            <path d="M12.9932,12.399 C14.1312,12.399 15.0532,13.321 15.0532,14.459 C15.0532,15.596 14.1312,16.518 12.9932,16.518 C11.8562,16.518 10.9342,15.596 10.9342,14.459 C10.9342,13.321 11.8562,12.399 12.9932,12.399" id="Fill-6" fill="#FFFFFF"></path>
        </g>
    </g>
</svg>