<?xml version="1.0" encoding="UTF-8"?>
<svg width="60px" height="60px" viewBox="0 0 60 60" version="1.1" xmlns="http://www.w3.org/2000/svg" xmlns:xlink="http://www.w3.org/1999/xlink">
    <!-- Generator: Sketch 63.1 (92452) - https://sketch.com -->
    <title>icon-youtube</title>
    <desc>Created with Sketch.</desc>
    <defs>
        <polygon id="path-1" points="0.0004 0.0002 30 0.0002 30 21.1001 0.0004 21.1001"></polygon>
    </defs>
    <g id="icon-youtube" stroke="none" stroke-width="1" fill="none" fill-rule="evenodd">
        <rect id="Rectangle" x="0" y="0" width="60" height="60"></rect>
        <g id="Group-3" transform="translate(15.000000, 19.000000)">
            <mask id="mask-2" fill="white">
                <use xlink:href="#path-1"></use>
            </mask>
            <g id="Clip-2"></g>
            <path d="M11.9024,14.4412 L11.9014,6.0122 L20.0074,10.2412 L11.9024,14.4412 Z M29.7004,4.5522 C29.7004,4.5522 29.4074,2.4842 28.5074,1.5742 C27.3674,0.3792 26.0884,0.3732 25.5024,0.3032 C21.3034,0.0002 15.0064,0.0002 15.0064,0.0002 L14.9934,0.0002 C14.9934,0.0002 8.6964,0.0002 4.4984,0.3032 C3.9124,0.3732 2.6334,0.3792 1.4924,1.5742 C0.5924,2.4842 0.2994,4.5522 0.2994,4.5522 C0.2994,4.5522 0.0004,6.9802 0.0004,9.4072 L0.0004,11.6832 C0.0004,14.1112 0.2994,16.5392 0.2994,16.5392 C0.2994,16.5392 0.5924,18.6062 1.4924,19.5162 C2.6334,20.7112 4.1324,20.6732 4.7994,20.7982 C7.2004,21.0282 15.0004,21.1002 15.0004,21.1002 C15.0004,21.1002 21.3034,21.0902 25.5024,20.7872 C26.0884,20.7172 27.3674,20.7112 28.5074,19.5162 C29.4074,18.6062 29.7004,16.5392 29.7004,16.5392 C29.7004,16.5392 30.0004,14.1112 30.0004,11.6832 L30.0004,9.4072 C30.0004,6.9802 29.7004,4.5522 29.7004,4.5522 L29.7004,4.5522 Z" id="Fill-1" fill="#FFFFFF" mask="url(#mask-2)"></path>
        </g>
    </g>
</svg>