<?xml version="1.0" encoding="UTF-8"?>
<svg width="60px" height="60px" viewBox="0 0 60 60" version="1.1" xmlns="http://www.w3.org/2000/svg" xmlns:xlink="http://www.w3.org/1999/xlink">
    <!-- Generator: Sketch 63.1 (92452) - https://sketch.com -->
    <title>icon-behance</title>
    <desc>Created with Sketch.</desc>
    <defs>
        <polygon id="path-1" points="0 -0.0001 30 -0.0001 30 18.6665 0 18.6665"></polygon>
    </defs>
    <g id="icon-behance" stroke="none" stroke-width="1" fill="none" fill-rule="evenodd">
        <rect id="Rectangle" x="0" y="0" width="60" height="60"></rect>
        <g id="Group-3" transform="translate(15.000000, 21.000000)">
            <mask id="mask-2" fill="white">
                <use xlink:href="#path-1"></use>
            </mask>
            <g id="Clip-2"></g>
            <path d="M26.3687,10.0769 C26.3037,9.1479 25.9937,8.4449 25.4347,7.9649 C24.8807,7.4819 24.1887,7.2399 23.3627,7.2399 C22.4637,7.2399 21.7697,7.4989 21.2767,8.0079 C20.7807,8.5149 20.4717,9.2039 20.3447,10.0779 L26.3687,10.0779 L26.3687,10.0769 Z M29.8817,9.7289 C29.9727,10.3399 30.0137,11.2249 29.9967,12.3839 L20.2617,12.3839 C20.3147,13.7269 20.7787,14.6679 21.6587,15.2049 C22.1887,15.5429 22.8327,15.7069 23.5857,15.7069 C24.3797,15.7069 25.0277,15.5069 25.5257,15.0939 C25.7977,14.8749 26.0367,14.5659 26.2437,14.1769 L29.8117,14.1769 C29.7187,14.9699 29.2887,15.7749 28.5167,16.5929 C27.3207,17.8929 25.6427,18.5449 23.4887,18.5449 C21.7087,18.5449 20.1397,17.9949 18.7777,16.8989 C17.4207,15.7999 16.7397,14.0159 16.7397,11.5429 C16.7397,9.2229 17.3507,7.4479 18.5787,6.2129 C19.8117,4.9739 21.4027,4.3579 23.3627,4.3579 C24.5247,4.3579 25.5727,4.5659 26.5067,4.9829 C27.4387,5.4009 28.2087,6.0589 28.8147,6.9639 C29.3637,7.7599 29.7167,8.6809 29.8817,9.7289 L29.8817,9.7289 Z M11.3657,12.7649 C11.3657,11.7969 10.9697,11.1259 10.1787,10.7659 C9.7357,10.5609 9.1117,10.4569 8.3117,10.4499 L4.3057,10.4499 L4.3057,15.4249 L8.2497,15.4249 C9.0597,15.4249 9.6867,15.3179 10.1397,15.0969 C10.9557,14.6899 11.3657,13.9159 11.3657,12.7649 L11.3657,12.7649 Z M4.3057,7.3589 L8.2547,7.3589 C9.0667,7.3589 9.7227,7.2049 10.2277,6.8959 C10.7337,6.5889 10.9857,6.0419 10.9857,5.2559 C10.9857,4.3879 10.6517,3.8099 9.9827,3.5329 C9.4077,3.3409 8.6717,3.2409 7.7797,3.2409 L4.3057,3.2409 L4.3057,7.3589 Z M14.5717,10.2989 C15.0557,11.0499 15.2987,11.9619 15.2987,13.0319 C15.2987,14.1389 15.0257,15.1339 14.4697,16.0109 C14.1157,16.5919 13.6767,17.0819 13.1487,17.4769 C12.5547,17.9329 11.8507,18.2469 11.0417,18.4139 C10.2307,18.5819 9.3527,18.6669 8.4067,18.6669 L-0.0003,18.6669 L-0.0003,-0.0001 L9.0147,-0.0001 C11.2867,0.0369 12.8977,0.6949 13.8497,1.9879 C14.4207,2.7809 14.7027,3.7329 14.7027,4.8389 C14.7027,5.9799 14.4167,6.8929 13.8407,7.5869 C13.5197,7.9749 13.0457,8.3299 12.4187,8.6489 C13.3687,8.9969 14.0897,9.5449 14.5717,10.2989 L14.5717,10.2989 Z M27.0927,2.6409 L19.5757,2.6409 L19.5757,0.7739 L27.0927,0.7739 L27.0927,2.6409 Z" id="Fill-1" fill="#FFFFFF" mask="url(#mask-2)"></path>
        </g>
    </g>
</svg>