<svg xmlns="http://www.w3.org/2000/svg" viewBox="0 0 60 60"><defs><style>.cls-1{fill:none;}.cls-2{fill:#fff;}</style></defs><title>sio-icon-soundcloud</title><g id="Layer_2" data-name="Layer 2"><g id="Layer_1-2" data-name="Layer 1"><rect class="cls-1" width="60" height="60" rx="8" ry="8"/><path class="cls-2" d="M16.45,30.25a.13.13,0,0,0-.12.12L16,33.06l.29,2.63a.12.12,0,0,0,.25,0l.34-2.64-.34-2.69A.13.13,0,0,0,16.45,30.25Z"/><path class="cls-2" d="M15.34,31.28a.12.12,0,0,0-.12.12L15,33.06l.22,1.64a.12.12,0,0,0,.12.12.13.13,0,0,0,.12-.12l.26-1.64-.26-1.67A.13.13,0,0,0,15.34,31.28Z"/><path class="cls-2" d="M17.63,29.72a.15.15,0,0,0-.15.15l-.28,3.2.28,3.08a.15.15,0,0,0,.15.15.16.16,0,0,0,.15-.15l.32-3.08-.32-3.2A.16.16,0,0,0,17.63,29.72Z"/><path class="cls-2" d="M18.82,29.61a.18.18,0,0,0-.18.17l-.26,3.28.26,3.18a.18.18,0,0,0,.35,0l.3-3.18L19,29.78A.18.18,0,0,0,18.82,29.61Z"/><polygon class="cls-2" points="20.21 36.27 20.21 36.27 20.21 36.27 20.21 36.27"/><path class="cls-2" d="M20.21,30a.2.2,0,0,0-.4,0l-.25,3,.25,3.2a.2.2,0,0,0,.4,0l.28-3.2Z"/><path class="cls-2" d="M21.22,27.88a.23.23,0,0,0-.23.22l-.23,5,.23,3.2a.23.23,0,0,0,.45,0h0l.27-3.2-.27-5A.23.23,0,0,0,21.22,27.88Z"/><path class="cls-2" d="M22.42,26.74a.26.26,0,0,0-.25.25l-.22,6.09.22,3.18a.25.25,0,0,0,.51,0h0l.25-3.18L22.67,27A.26.26,0,0,0,22.42,26.74Z"/><path class="cls-2" d="M23.66,26.19a.28.28,0,0,0-.28.28l-.2,6.6.2,3.15a.28.28,0,0,0,.56,0h0l.23-3.15-.23-6.6A.28.28,0,0,0,23.66,26.19Z"/><path class="cls-2" d="M25.21,26.24a.3.3,0,0,0-.61,0l-.19,6.82.19,3.13a.3.3,0,0,0,.61,0l.21-3.13Z"/><polygon class="cls-2" points="25.2 36.2 25.2 36.2 25.2 36.2 25.2 36.2"/><path class="cls-2" d="M26.15,26.09a.33.33,0,0,0-.33.33l-.17,6.65.17,3.1a.33.33,0,0,0,.66,0h0l.2-3.1-.2-6.65A.33.33,0,0,0,26.15,26.09Z"/><path class="cls-2" d="M27.4,26.31a.36.36,0,0,0-.36.35l-.16,6.4L27,36.15a.36.36,0,0,0,.71,0h0l.18-3.08-.18-6.41A.36.36,0,0,0,27.4,26.31Z"/><path class="cls-2" d="M28.88,25.13a.37.37,0,0,0-.42,0,.39.39,0,0,0-.18.32v.07l-.14,7.55.14,3.06h0a.38.38,0,0,0,.38.36.38.38,0,0,0,.27-.11.39.39,0,0,0,.11-.27l0-.3.14-2.76L29,25.45A.39.39,0,0,0,28.88,25.13Z"/><polygon class="cls-2" points="29.05 36.13 29.05 36.13 29.05 36.13 29.05 36.13 29.05 36.13 29.05 36.13 29.05 36.13 29.05 36.13"/><path class="cls-2" d="M30.14,24.41a.4.4,0,0,0-.46,0,.41.41,0,0,0-.15.31v0l-.17,8.27.08,1.53.08,1.49a.41.41,0,0,0,.81,0h0l.18-3h0l-.18-8.31A.41.41,0,0,0,30.14,24.41Z"/><path class="cls-2" d="M41.31,29.13a3.69,3.69,0,0,0-1.43.29,6.51,6.51,0,0,0-6.48-5.93,6.59,6.59,0,0,0-2.36.44c-.28.11-.35.22-.36.43V36.07a.43.43,0,0,0,.4.42H41.31a3.68,3.68,0,1,0,0-7.36Z"/></g></g></svg>