<svg xmlns="http://www.w3.org/2000/svg" viewBox="0 0 60 60"><defs><style>.cls-1{fill:none;}.cls-2{fill:#fff;}</style></defs><title>sio-icon-instagram</title><g id="Layer_2" data-name="Layer 2"><g id="Layer_1-2" data-name="Layer 1"><rect class="cls-1" width="60" height="60" rx="8" ry="8"/><path class="cls-2" d="M30.15,23.23a7.05,7.05,0,0,1,4.1,1.31H44.94V22.47A7.48,7.48,0,0,0,37.47,15H22.53a7.48,7.48,0,0,0-7.47,7.47v2.08H26A7.05,7.05,0,0,1,30.15,23.23Zm6.12-3.7a.83.83,0,0,1,.83-.83h2.56a.83.83,0,0,1,.83.83V22.1a.83.83,0,0,1-.83.83H37.1a.83.83,0,0,1-.83-.83Z"/><path class="cls-2" d="M37.25,30.33a7.09,7.09,0,1,1-13.51-3H15.06V37.53A7.48,7.48,0,0,0,22.53,45H37.47a7.48,7.48,0,0,0,7.47-7.47V27.31H36.57A7.05,7.05,0,0,1,37.25,30.33Z"/><circle class="cls-2" cx="30.15" cy="30.33" r="2.94"/></g></g></svg>