<?xml version="1.0" encoding="UTF-8"?>
<svg width="60px" height="60px" viewBox="0 0 60 60" version="1.1" xmlns="http://www.w3.org/2000/svg" xmlns:xlink="http://www.w3.org/1999/xlink">
    <!-- Generator: Sketch 63.1 (92452) - https://sketch.com -->
    <title>icon-twitter</title>
    <desc>Created with Sketch.</desc>
    <defs>
        <polygon id="path-1" points="0 0.0004 29.9998 0.0004 29.9998 24.3801 0 24.3801"></polygon>
    </defs>
    <g id="icon-twitter" stroke="none" stroke-width="1" fill="none" fill-rule="evenodd">
        <rect id="Rectangle" x="0" y="0" width="60" height="60"></rect>
        <g id="Group-3" transform="translate(15.000000, 18.000000)">
            <mask id="mask-2" fill="white">
                <use xlink:href="#path-1"></use>
            </mask>
            <g id="Clip-2"></g>
            <path d="M29.9998,2.8861 C28.8958,3.3761 27.7098,3.7061 26.4648,3.8551 C27.7358,3.0941 28.7118,1.8871 29.1708,0.4501 C27.9818,1.1561 26.6648,1.6681 25.2628,1.9441 C24.1408,0.7471 22.5408,0.0001 20.7708,0.0001 C17.3708,0.0001 14.6148,2.7561 14.6148,6.1551 C14.6148,6.6371 14.6698,7.1071 14.7738,7.5571 C9.6588,7.3011 5.1238,4.8501 2.0888,1.1271 C1.5588,2.0351 1.2548,3.0931 1.2548,4.2211 C1.2548,6.3561 2.3418,8.2401 3.9928,9.3441 C2.9838,9.3121 2.0348,9.0351 1.2058,8.5741 C1.2048,8.6001 1.2048,8.6251 1.2048,8.6511 C1.2048,11.6341 3.3268,14.1211 6.1428,14.6861 C5.6258,14.8271 5.0818,14.9021 4.5208,14.9021 C4.1238,14.9021 3.7378,14.8641 3.3618,14.7921 C4.1458,17.2371 6.4188,19.0171 9.1118,19.0661 C7.0058,20.7171 4.3518,21.7011 1.4688,21.7011 C0.9718,21.7011 0.4808,21.6721 -0.0002,21.6151 C2.7238,23.3621 5.9588,24.3801 9.4348,24.3801 C20.7558,24.3801 26.9468,15.0021 26.9468,6.8681 C26.9468,6.6011 26.9398,6.3361 26.9288,6.0721 C28.1318,5.2041 29.1748,4.1201 29.9998,2.8861" id="Fill-1" fill="#FFFFFF" mask="url(#mask-2)"></path>
        </g>
    </g>
</svg>