<?xml version="1.0" encoding="UTF-8"?>
<svg width="60px" height="60px" viewBox="0 0 60 60" version="1.1" xmlns="http://www.w3.org/2000/svg" xmlns:xlink="http://www.w3.org/1999/xlink">
    <!-- Generator: Sketch 63.1 (92452) - https://sketch.com -->
    <title>icon-soundcloud</title>
    <desc>Created with Sketch.</desc>
    <defs>
        <polygon id="path-1" points="1 0.7637 1.8598 0.7637 1.8598 4.3027 1 4.3027"></polygon>
        <polygon id="path-3" points="0.7148 0.2525 1.7148 0.2525 1.7148 1 0.7148 1"></polygon>
        <polygon id="path-5" points="0.7056 0.1822 1.7056 0.1822 1.7056 1 0.7056 1"></polygon>
        <polygon id="path-7" points="0.5498 0.1137 1.5498 0.1137 1.5498 1 0.5498 1"></polygon>
        <polygon id="path-9" points="0.6831 0.9722 15 0.9722 15 13.9816444 0.6831 13.9816444"></polygon>
    </defs>
    <g id="icon-soundcloud" stroke="none" stroke-width="1" fill="none" fill-rule="evenodd">
        <rect id="Rectangle" x="0" y="0" width="60" height="60"></rect>
        <g id="Group-40" transform="translate(15.000000, 22.000000)">
            <path d="M2.4487,7.7606 C2.3857,7.7606 2.3327,7.8116 2.3237,7.8816 L2.0297,10.5756 L2.3237,13.2096 C2.3327,13.2816 2.3857,13.3316 2.4487,13.3316 C2.5117,13.3316 2.5627,13.2816 2.5737,13.2106 L2.9087,10.5756 L2.5737,7.8816 C2.5627,7.8106 2.5117,7.7606 2.4487,7.7606" id="Fill-1" fill="#FFFFFF"></path>
            <g id="Group-5" transform="translate(0.000000, 8.028200)">
                <mask id="mask-2" fill="white">
                    <use xlink:href="#path-1"></use>
                </mask>
                <g id="Clip-4"></g>
                <path d="M1.3398,0.7637 C1.2768,0.7637 1.2278,0.8127 1.2188,0.8817 L0.9998,2.5477 L1.2188,4.1857 C1.2278,4.2537 1.2768,4.3027 1.3398,4.3027 C1.4008,4.3027 1.4498,4.2547 1.4598,4.1857 L1.7198,2.5477 L1.4598,0.8807 C1.4498,0.8127 1.4008,0.7637 1.3398,0.7637" id="Fill-3" fill="#FFFFFF" mask="url(#mask-2)"></path>
            </g>
            <path d="M3.6274,7.2323 C3.5484,7.2323 3.4844,7.2943 3.4774,7.3793 L3.1974,10.5763 L3.4774,13.6563 C3.4844,13.7413 3.5484,13.8033 3.6274,13.8033 C3.7054,13.8033 3.7684,13.7413 3.7774,13.6563 L4.0954,10.5763 L3.7774,7.3793 C3.7684,7.2943 3.7054,7.2323 3.6274,7.2323" id="Fill-6" fill="#FFFFFF"></path>
            <path d="M4.8159,7.119 C4.7229,7.119 4.6469,7.193 4.6399,7.292 L4.3749,10.577 L4.6399,13.754 C4.6469,13.852 4.7229,13.927 4.8159,13.927 C4.9079,13.927 4.9829,13.852 4.9909,13.754 L5.2919,10.577 L4.9909,7.292 C4.9829,7.193 4.9079,7.119 4.8159,7.119" id="Fill-8" fill="#FFFFFF"></path>
            <g id="Group-12" transform="translate(5.000000, 13.028200)">
                <mask id="mask-4" fill="white">
                    <use xlink:href="#path-3"></use>
                </mask>
                <g id="Clip-11"></g>
                <polygon id="Fill-10" fill="#FFFFFF" mask="url(#mask-4)" points="1.2148 0.752 1.2148 0.752 1.2148 0.753"></polygon>
            </g>
            <path d="M6.2148,7.5292 C6.2068,7.4172 6.1208,7.3312 6.0128,7.3312 C5.9048,7.3312 5.8188,7.4172 5.8118,7.5302 L5.5618,10.5772 L5.8118,13.7802 C5.8188,13.8932 5.9048,13.9792 6.0128,13.9792 C6.1208,13.9792 6.2068,13.8932 6.2148,13.7802 L6.4978,10.5772 L6.2148,7.5292 Z" id="Fill-13" fill="#FFFFFF"></path>
            <path d="M7.2212,5.3964 C7.1002,5.3964 7.0002,5.4954 6.9942,5.6214 L6.7592,10.5784 L6.9942,13.7814 C7.0002,13.9064 7.1002,14.0054 7.2212,14.0054 C7.3412,14.0054 7.4412,13.9064 7.4482,13.7814 L7.4482,13.7824 L7.7132,10.5784 L7.4482,5.6214 C7.4412,5.4954 7.3412,5.3964 7.2212,5.3964" id="Fill-15" fill="#FFFFFF"></path>
            <path d="M8.4194,4.2548 C8.2834,4.2548 8.1724,4.3638 8.1664,4.5048 L7.9474,10.5958 L8.1674,13.7788 C8.1724,13.9178 8.2834,14.0278 8.4194,14.0278 C8.5544,14.0278 8.6654,13.9178 8.6724,13.7778 L8.6714,13.7788 L8.9204,10.5958 L8.6724,4.5048 C8.6654,4.3638 8.5544,4.2548 8.4194,4.2548" id="Fill-17" fill="#FFFFFF"></path>
            <path d="M9.665,3.704 C9.514,3.704 9.392,3.826 9.387,3.98 L9.182,10.58 L9.387,13.73 C9.392,13.884 9.514,14.005 9.665,14.005 C9.815,14.005 9.937,13.884 9.943,13.729 L9.943,13.73 L10.174,10.58 L9.943,3.98 C9.937,3.825 9.815,3.704 9.665,3.704" id="Fill-19" fill="#FFFFFF"></path>
            <path d="M11.2056,3.7587 C11.2006,3.5887 11.0666,3.4567 10.9016,3.4567 C10.7356,3.4567 10.6026,3.5887 10.5976,3.7587 L10.4086,10.5797 L10.5976,13.7107 C10.6026,13.8787 10.7356,14.0117 10.9016,14.0117 C11.0666,14.0117 11.1996,13.8787 11.2056,13.7097 L11.4186,10.5797 L11.2056,3.7587 Z" id="Fill-21" fill="#FFFFFF"></path>
            <g id="Group-25" transform="translate(10.000000, 13.028200)">
                <mask id="mask-6" fill="white">
                    <use xlink:href="#path-5"></use>
                </mask>
                <g id="Clip-24"></g>
                <polygon id="Fill-23" fill="#FFFFFF" mask="url(#mask-6)" points="1.2056 0.6817 1.2056 0.6817 1.2056 0.6827"></polygon>
            </g>
            <path d="M12.1479,3.6054 C11.9669,3.6054 11.8219,3.7504 11.8179,3.9334 L11.6439,10.5804 L11.8179,13.6814 C11.8219,13.8644 11.9669,14.0074 12.1479,14.0074 C12.3279,14.0074 12.4719,13.8644 12.4769,13.6794 L12.4769,13.6824 L12.6729,10.5804 L12.4769,3.9324 C12.4719,3.7494 12.3279,3.6054 12.1479,3.6054" id="Fill-26" fill="#FFFFFF"></path>
            <path d="M13.4038,3.8222 C13.2078,3.8222 13.0518,3.9782 13.0488,4.1762 L12.8898,10.5812 L13.0488,13.6622 C13.0518,13.8582 13.2078,14.0132 13.4038,14.0132 C13.5978,14.0132 13.7548,13.8582 13.7588,13.6602 L13.7588,13.6632 L13.9368,10.5812 L13.7588,4.1762 C13.7548,3.9772 13.5978,3.8222 13.4038,3.8222" id="Fill-28" fill="#FFFFFF"></path>
            <path d="M14.8794,2.6454 C14.8184,2.6044 14.7464,2.5814 14.6694,2.5814 C14.5934,2.5814 14.5234,2.6034 14.4634,2.6424 C14.3604,2.7094 14.2904,2.8274 14.2884,2.9594 L14.2874,3.0324 L14.1444,10.5794 C14.1444,10.5834 14.2884,13.6424 14.2884,13.6424 C14.2884,13.6474 14.2894,13.6514 14.2894,13.6564 C14.2934,13.7414 14.3264,13.8204 14.3784,13.8824 C14.4474,13.9664 14.5524,14.0204 14.6694,14.0204 C14.7724,14.0204 14.8664,13.9774 14.9354,13.9094 C15.0044,13.8404 15.0474,13.7464 15.0494,13.6414 L15.0664,13.3384 L15.2104,10.5824 L15.0494,2.9594 C15.0474,2.8294 14.9804,2.7134 14.8794,2.6454" id="Fill-30" fill="#FFFFFF"></path>
            <g id="Group-34" transform="translate(14.000000, 13.028200)">
                <mask id="mask-8" fill="white">
                    <use xlink:href="#path-7"></use>
                </mask>
                <g id="Clip-33"></g>
                <polygon id="Fill-32" fill="#FFFFFF" mask="url(#mask-8)" points="1.0498 0.6152 1.0498 0.6142 1.0498 0.6152 1.0498 0.6132 1.0498 0.6122 1.0498 0.6132 1.0498 0.6142"></polygon>
            </g>
            <path d="M16.1357,1.9227 C16.0747,1.8857 16.0047,1.8637 15.9287,1.8637 C15.8317,1.8637 15.7427,1.8997 15.6727,1.9567 C15.5827,2.0317 15.5247,2.1447 15.5227,2.2697 L15.5217,2.3117 L15.3557,10.5817 L15.4407,12.1107 L15.5227,13.5997 C15.5257,13.8187 15.7077,14.0007 15.9287,14.0007 C16.1497,14.0007 16.3317,13.8187 16.3347,13.5957 L16.3347,13.5997 L16.5157,10.5817 L16.3347,2.2697 C16.3327,2.1217 16.2527,1.9937 16.1357,1.9227" id="Fill-35" fill="#FFFFFF"></path>
            <g id="Group-39" transform="translate(16.000000, 0.028200)">
                <mask id="mask-10" fill="white">
                    <use xlink:href="#path-9"></use>
                </mask>
                <g id="Clip-38"></g>
                <path d="M11.3101,6.6192 C10.8051,6.6192 10.3221,6.7222 9.8831,6.9062 C9.5891,3.5812 6.8011,0.9722 3.3991,0.9722 C2.5661,0.9722 1.7551,1.1362 1.0391,1.4132 C0.7601,1.5202 0.6861,1.6312 0.6831,1.8472 L0.6831,13.5572 C0.6861,13.7842 0.8611,13.9592 1.0821,13.9812 C1.0911,13.9822 11.3101,13.9812 11.3101,13.9812 C13.3481,13.9812 15.0001,12.3482 15.0001,10.3092 C15.0001,8.2712 13.3481,6.6192 11.3101,6.6192" id="Fill-37" fill="#FFFFFF" mask="url(#mask-10)"></path>
            </g>
        </g>
    </g>
</svg>