<?xml version="1.0" encoding="UTF-8"?>
<svg width="60px" height="60px" viewBox="0 0 60 60" version="1.1" xmlns="http://www.w3.org/2000/svg" xmlns:xlink="http://www.w3.org/1999/xlink">
    <!-- Generator: Sketch 63.1 (92452) - https://sketch.com -->
    <title>icon-linkedin</title>
    <desc>Created with Sketch.</desc>
    <defs>
        <polygon id="path-1" points="10.6133 9.4463 29.9999 9.4463 29.9999 29.95 10.6133 29.95"></polygon>
    </defs>
    <g id="icon-linkedin" stroke="none" stroke-width="1" fill="none" fill-rule="evenodd">
        <rect id="Rectangle" x="0" y="0" width="60" height="60"></rect>
        <g id="Group" transform="translate(15.000100, 16.000000)">
            <polygon id="Fill-1" fill="#FFFFFF" points="0.4929 29.95 6.7129 29.95 6.7129 9.946 0.4929 9.946"></polygon>
            <path d="M3.604,1.77635684e-14 C5.591,1.77635684e-14 7.207,1.616 7.207,3.604 C7.207,5.595 5.591,7.21 3.604,7.21 C1.611,7.21 -6.03961325e-14,5.595 -6.03961325e-14,3.604 C-6.03961325e-14,1.616 1.611,1.77635684e-14 3.604,1.77635684e-14" id="Fill-2" fill="#FFFFFF"></path>
            <mask id="mask-2" fill="white">
                <use xlink:href="#path-1"></use>
            </mask>
            <g id="Clip-5"></g>
            <path d="M10.6133,9.9453 L16.5773,9.9453 L16.5773,12.6773 L16.6623,12.6773 C17.4923,11.1053 19.5213,9.4463 22.5463,9.4463 C28.8383,9.4463 30.0003,13.5893 30.0003,18.9773 L30.0003,29.9503 L23.7893,29.9503 L23.7893,20.2223 C23.7893,17.9013 23.7443,14.9173 20.5573,14.9173 C17.3223,14.9173 16.8283,17.4443 16.8283,20.0533 L16.8283,29.9503 L10.6133,29.9503 L10.6133,9.9453 Z" id="Fill-4" fill="#FFFFFF" mask="url(#mask-2)"></path>
        </g>
    </g>
</svg>