<svg xmlns="http://www.w3.org/2000/svg" viewBox="0 0 60 60"><defs><style>.cls-1{fill:none;}.cls-2{fill:#fff;}</style></defs><title>sio-icon-youtube</title><g id="Layer_2" data-name="Layer 2"><g id="Layer_1-2" data-name="Layer 1"><rect class="cls-1" width="60" height="60" rx="8" ry="8"/><g id="Lozenge"><path class="cls-2" d="M44.7,24a6.49,6.49,0,0,0-1.19-3,4.29,4.29,0,0,0-3-1.27c-4.2-.3-10.5-.3-10.5-.3h0s-6.3,0-10.5.3a4.29,4.29,0,0,0-3,1.27,6.49,6.49,0,0,0-1.19,3,45.37,45.37,0,0,0-.3,4.86v2.28A45.38,45.38,0,0,0,15.3,36a6.49,6.49,0,0,0,1.19,3,5.09,5.09,0,0,0,3.31,1.28c2.4.23,10.2.3,10.2.3s6.3,0,10.5-.31a4.29,4.29,0,0,0,3-1.27,6.49,6.49,0,0,0,1.19-3,45.43,45.43,0,0,0,.3-4.86V28.86A45.43,45.43,0,0,0,44.7,24ZM26.9,33.89V25.46L35,29.69Z"/></g></g></g></svg>