<svg xmlns="http://www.w3.org/2000/svg" viewBox="0 0 60 60"><defs><style>.cls-1{fill:none;}.cls-2{fill:#fff;}</style></defs><title>sio-icon-pinterest</title><g id="Layer_2" data-name="Layer 2"><g id="Layer_1-2" data-name="Layer 1"><rect class="cls-1" width="60" height="60" rx="8" ry="8"/><path class="cls-2" d="M30.7,15c-8.19,0-12.31,5.87-12.31,10.76,0,3,1.12,5.6,3.53,6.58a.59.59,0,0,0,.86-.43c.08-.3.27-1.07.35-1.38a.84.84,0,0,0-.25-1,5,5,0,0,1-1.14-3.38,8.16,8.16,0,0,1,8.48-8.25c4.63,0,7.17,2.83,7.17,6.6,0,5-2.2,9.16-5.46,9.16a2.67,2.67,0,0,1-2.72-3.32c.52-2.18,1.52-4.54,1.52-6.11a2.31,2.31,0,0,0-2.32-2.59c-1.84,0-3.32,1.91-3.32,4.46a6.63,6.63,0,0,0,.55,2.73l-2.22,9.39a19.34,19.34,0,0,0-.05,6.55.23.23,0,0,0,.41.1,18.39,18.39,0,0,0,3.11-5.64c.21-.77,1.21-4.74,1.21-4.74a4.94,4.94,0,0,0,4.21,2.15c5.54,0,9.3-5.05,9.3-11.81C41.61,19.76,37.28,15,30.7,15Z"/></g></g></svg>