<?xml version="1.0" encoding="UTF-8"?>
<svg width="60px" height="60px" viewBox="0 0 60 60" version="1.1" xmlns="http://www.w3.org/2000/svg" xmlns:xlink="http://www.w3.org/1999/xlink">
    <!-- Generator: Sketch 63.1 (92452) - https://sketch.com -->
    <title>icon-pinterest</title>
    <desc>Created with Sketch.</desc>
    <g id="icon-pinterest" stroke="none" stroke-width="1" fill="none" fill-rule="evenodd">
        <rect id="Rectangle" x="0" y="0" width="60" height="60"></rect>
        <path d="M30.314,15 C22.127,15 18,20.87 18,25.765 C18,28.728 19.122,31.365 21.528,32.348 C21.922,32.509 22.276,32.353 22.39,31.917 C22.47,31.614 22.659,30.851 22.743,30.534 C22.858,30.101 22.813,29.95 22.495,29.573 C21.8,28.754 21.357,27.695 21.357,26.194 C21.357,21.839 24.616,17.941 29.841,17.941 C34.468,17.941 37.011,20.768 37.011,24.544 C37.011,29.513 34.812,33.706 31.548,33.706 C29.746,33.706 28.396,32.215 28.829,30.387 C29.346,28.204 30.349,25.848 30.349,24.272 C30.349,22.862 29.592,21.686 28.026,21.686 C26.183,21.686 24.703,23.592 24.703,26.146 C24.703,27.772 25.252,28.872 25.252,28.872 C25.252,28.872 23.366,36.863 23.036,38.262 C22.377,41.049 22.937,44.465 22.984,44.811 C23.011,45.015 23.274,45.063 23.393,44.909 C23.563,44.687 25.758,41.978 26.504,39.27 C26.715,38.503 27.716,34.533 27.716,34.533 C28.315,35.675 30.065,36.681 31.925,36.681 C37.465,36.681 41.223,31.631 41.223,24.872 C41.223,19.76 36.894,15 30.314,15" id="Fill-1" fill="#FFFFFF"></path>
    </g>
</svg>