<?xml version="1.0" encoding="UTF-8"?>
<svg width="60px" height="60px" viewBox="0 0 60 60" version="1.1" xmlns="http://www.w3.org/2000/svg" xmlns:xlink="http://www.w3.org/1999/xlink">
    <!-- Generator: Sketch 63.1 (92452) - https://sketch.com -->
    <title>icon-dribbble</title>
    <desc>Created with Sketch.</desc>
    <defs>
        <polygon id="path-1" points="0 0.0004 30.0397 0.0004 30.0397 30 0 30"></polygon>
    </defs>
    <g id="icon-dribbble" stroke="none" stroke-width="1" fill="none" fill-rule="evenodd">
        <rect id="Rectangle" x="0" y="0" width="60" height="60"></rect>
        <g id="Group-3" transform="translate(15.000000, 15.000000)">
            <mask id="mask-2" fill="white">
                <use xlink:href="#path-1"></use>
            </mask>
            <g id="Clip-2"></g>
            <path d="M24.9507,6.9174 C24.6797,7.2824 22.5307,10.0344 17.7867,11.9694 C18.0857,12.5794 18.3717,13.1994 18.6387,13.8244 C18.7327,14.0464 18.8247,14.2674 18.9147,14.4854 C23.1837,13.9494 27.4247,14.8094 27.8477,14.8984 C27.8197,11.8744 26.7377,9.0974 24.9507,6.9174 M12.0137,2.5634 C12.3677,3.0374 14.6987,6.2064 16.8007,10.0634 C21.3627,8.3554 23.2937,5.7644 23.5247,5.4364 C21.2587,3.4284 18.2797,2.2074 15.0197,2.2074 C13.9847,2.2074 12.9787,2.3314 12.0137,2.5634 M2.4617,12.3954 C3.0357,12.4024 8.3207,12.4264 14.3227,10.8344 C12.1967,7.0614 9.9037,3.8884 9.5657,3.4244 C5.9767,5.1154 3.2937,8.4194 2.4617,12.3954 M5.4887,23.5864 C5.7797,23.0894 9.3007,17.2674 15.9167,15.1314 C16.0837,15.0774 16.2527,15.0264 16.4227,14.9794 C16.1007,14.2514 15.7497,13.5224 15.3827,12.8054 C8.9757,14.7194 2.7587,14.6394 2.1977,14.6284 C2.1937,14.7584 2.1907,14.8884 2.1907,15.0204 C2.1907,18.3104 3.4397,21.3144 5.4887,23.5864 M20.0317,26.8134 C19.8407,25.6894 19.0957,21.7714 17.2947,17.0984 C17.2667,17.1064 17.2387,17.1164 17.2097,17.1264 C9.9737,19.6444 7.3757,24.6554 7.1447,25.1274 C9.3207,26.8204 12.0547,27.8314 15.0197,27.8314 C16.7977,27.8314 18.4917,27.4694 20.0317,26.8134 M27.6867,17.0534 C27.2487,16.9144 23.7167,15.8624 19.6957,16.5054 C21.3737,21.1104 22.0567,24.8604 22.1887,25.6414 C25.0667,23.6964 27.1157,20.6184 27.6867,17.0534 M15.0197,30.0004 C6.7377,30.0004 -0.0003,23.2714 -0.0003,15.0004 C-0.0003,6.7294 6.7377,0.0004 15.0197,0.0004 C23.3027,0.0004 30.0397,6.7294 30.0397,15.0004 C30.0397,23.2714 23.3027,30.0004 15.0197,30.0004" id="Fill-1" fill="#FFFFFF" mask="url(#mask-2)"></path>
        </g>
    </g>
</svg>