<?xml version="1.0" encoding="UTF-8"?>
<svg width="60px" height="60px" viewBox="0 0 60 60" version="1.1" xmlns="http://www.w3.org/2000/svg" xmlns:xlink="http://www.w3.org/1999/xlink">
    <!-- Generator: Sketch 63.1 (92452) - https://sketch.com -->
    <title>icon-tumblr</title>
    <desc>Created with Sketch.</desc>
    <defs>
        <polygon id="path-1" points="0.0008 0.0001 17.825 0.0001 17.825 30 0.0008 30"></polygon>
    </defs>
    <g id="icon-tumblr" stroke="none" stroke-width="1" fill="none" fill-rule="evenodd">
        <rect id="Rectangle" x="0" y="0" width="60" height="60"></rect>
        <g id="Group-3" transform="translate(21.000000, 15.000000)">
            <mask id="mask-2" fill="white">
                <use xlink:href="#path-1"></use>
            </mask>
            <g id="Clip-2"></g>
            <path d="M17.6928,28.1451 C16.6778,29.2291 14.3258,29.9651 12.2178,30.0001 L11.9868,30.0001 C4.9098,30.0001 3.3728,24.7961 3.3728,21.7591 L3.3728,13.3211 L0.5848,13.3211 C0.2618,13.3211 0.0008,13.0601 0.0008,12.7371 L0.0008,8.7521 C0.0008,8.3321 0.2648,7.9571 0.6618,7.8171 C4.2948,6.5371 5.4338,3.3661 5.6028,0.9561 C5.6488,0.3121 5.9858,0.0001 6.5448,0.0001 L10.6998,0.0001 C11.0228,0.0001 11.2848,0.2621 11.2848,0.5841 L11.2848,7.3331 L16.1488,7.3331 C16.4718,7.3331 16.7338,7.5941 16.7348,7.9161 L16.7348,12.7051 C16.7338,13.0281 16.4718,13.2891 16.1488,13.2891 L11.2618,13.2891 L11.2618,21.0921 C11.2618,23.0521 12.5528,23.5931 13.3508,23.5931 C14.1168,23.5741 14.8698,23.3411 15.2478,23.1891 C15.5268,23.0771 15.7738,23.0021 15.9938,23.0581 C16.1988,23.1091 16.3348,23.2541 16.4248,23.5201 L17.7138,27.2861 C17.8188,27.5871 17.9088,27.9151 17.6928,28.1451" id="Fill-1" fill="#FFFFFF" mask="url(#mask-2)"></path>
        </g>
    </g>
</svg>