<svg xmlns="http://www.w3.org/2000/svg" viewBox="0 0 60 60"><defs><style>.cls-1{fill:none;}.cls-2{fill:#fff;fill-rule:evenodd;}</style></defs><title>sio-icon-dribbble</title><g id="Layer_2" data-name="Layer 2"><g id="Layer_1-2" data-name="Layer 1"><rect class="cls-1" width="60" height="60" rx="8" ry="8"/><path class="cls-2" d="M30,45A15,15,0,1,1,45,30,15,15,0,0,1,30,45ZM42.67,32.05a18.85,18.85,0,0,0-8-.55,55.23,55.23,0,0,1,2.49,9.14,12.83,12.83,0,0,0,5.5-8.59ZM35,41.81a53.21,53.21,0,0,0-2.74-9.72l-.08,0c-7.24,2.52-9.83,7.53-10.06,8A12.83,12.83,0,0,0,35,41.81ZM20.47,38.59A20.35,20.35,0,0,1,30.9,30.13L31.4,30c-.32-.73-.67-1.46-1-2.17a47.39,47.39,0,0,1-13.19,1.82c0,.13,0,.26,0,.39a12.75,12.75,0,0,0,3.3,8.57Zm-3-11.19A47.91,47.91,0,0,0,29.3,25.83a81.75,81.75,0,0,0-4.76-7.41,12.86,12.86,0,0,0-7.1,9ZM27,17.56a68.38,68.38,0,0,1,4.79,7.5,14.48,14.48,0,0,0,6.72-4.63A12.83,12.83,0,0,0,27,17.56Zm12.94,4.35A17.09,17.09,0,0,1,32.77,27c.3.61.58,1.23.85,1.86l.28.66a30,30,0,0,1,8.93.41,12.74,12.74,0,0,0-2.9-8Z"/></g></g></svg>