<svg xmlns="http://www.w3.org/2000/svg" viewBox="0 0 60 60"><defs><style>.cls-1{fill:none;}.cls-2{fill:#fff;fill-rule:evenodd;}</style></defs><title>sio-icon-google</title><g id="Layer_2" data-name="Layer 2"><g id="Layer_1-2" data-name="Layer 1"><rect class="cls-1" width="60" height="60" rx="8" ry="8"/><path class="cls-2" d="M33.68,28.11c.64,4.57-1.29,11.42-9.15,11.42A9.53,9.53,0,1,1,30.94,23c-2,1.88-1.93,2-2.71,2.78a5.4,5.4,0,0,0-3.7-1.39,5.66,5.66,0,0,0,0,11.32c3.09,0,4.34-1.33,5.15-3.78H24.53V28.11Z"/><path class="cls-2" d="M35.94,30.66V28.3h3.4V25H41.7v3.3H45v2.36H41.7v3.4H39.34v-3.4Z"/></g></g></svg>