<svg xmlns="http://www.w3.org/2000/svg" viewBox="0 0 60 60"><defs><style>.cls-1{fill:none;}.cls-2{fill:#fff;}</style></defs><title>sio-icon-vimeo</title><g id="Layer_2" data-name="Layer 2"><g id="Layer_1-2" data-name="Layer 1"><rect class="cls-1" width="60" height="60" rx="8" ry="8"/><path class="cls-2" d="M45,23q-.2,4.39-6.12,12-6.12,8-10.35,8-2.62,0-4.44-4.85l-2.42-8.9q-1.35-4.85-2.89-4.85a9.28,9.28,0,0,0-2.35,1.42L15,24q2.22-2,4.38-3.91,3-2.56,4.44-2.7,3.5-.34,4.31,4.8.87,5.54,1.21,6.89,1,4.6,2.22,4.59.94,0,2.83-3a11.76,11.76,0,0,0,2-4.54q.27-2.57-2-2.58a5.61,5.61,0,0,0-2.22.49Q34.39,16.8,40.63,17,45.25,17.14,45,23Z"/></g></g></svg>