<svg xmlns="http://www.w3.org/2000/svg" viewBox="0 0 60 60"><defs><style>.cls-1{fill:none;}.cls-2{fill:#fff;}</style></defs><title>sio-icon-bitbucket</title><g id="Layer_2" data-name="Layer 2"><g id="Layer_1-2" data-name="Layer 1"><rect class="cls-1" width="60" height="60" rx="8" ry="8"/><path class="cls-2" d="M30,15h0c-7.15,0-13,1.93-13,4.31,0,.64,1.55,9.64,2.19,13.23.28,1.61,4.42,3.95,10.81,3.95v0c6.39,0,10.53-2.36,10.81-3.95C41.42,29,43,19.95,43,19.31,43,16.93,37.13,15,30,15Zm0,18.6a4.12,4.12,0,1,1,4.12-4.12A4.12,4.12,0,0,1,30,33.6Zm0-13c-4.59,0-8.32-.81-8.32-1.78S25.41,17.1,30,17.1s8.32.81,8.32,1.78S34.59,20.65,30,20.65Z"/><path class="cls-2" d="M39.32,36.13a.63.63,0,0,0-.36.15,15.28,15.28,0,0,1-9,2.53,15.28,15.28,0,0,1-9-2.53.56.56,0,0,0-.36-.15.46.46,0,0,0-.47.51v.11c.49,2.65.85,4.54.91,4.82.42,2,4.25,3.44,8.85,3.44h0c4.61,0,8.43-1.46,8.85-3.44.06-.3.42-2.17.91-4.82v-.11A.37.37,0,0,0,39.32,36.13Z"/><circle class="cls-2" cx="30" cy="29.46" r="2.06"/></g></g></svg>