<svg xmlns="http://www.w3.org/2000/svg" viewBox="0 0 256 256"><defs><style>.cls-1{fill:#d44816;}.cls-2{fill:#fff;}</style></defs><title>icon</title><g id="Layer_2" data-name="Layer 2"><g id="Layer_1-2" data-name="Layer 1"><rect class="cls-1" width="256" height="256"/></g><g id="Layer_2-2" data-name="Layer 2"><path class="cls-2" d="M68.2,120.26c-4.28,0-6.93-5-8.69-8.56-6,0-10.32,3.53-10.32,8.56,0,2.52,1.64,5.41,4.28,8.06l9.82,9.19c5.79,5.41,7.43,8.56,7.43,13.85,0,11.58-9.06,19.39-22.54,19.39-8.18,0-14.48-3.4-14.48-7.55,0-3,3-5.79,6.17-5.79s5.16,1.51,9.69,8.18h1c6.67,0,11.33-4.15,11.33-10.07,0-3.15-1.13-5.41-5.29-9.19l-10.83-10.2a16.12,16.12,0,0,1-5.67-12c0-9.82,9.32-17.25,21.53-17.25,7.93,0,13.09,2.77,13.09,6.8A6.85,6.85,0,0,1,68.2,120.26Z"/><path class="cls-2" d="M119.31,171.5c-3.53,0-5.29-1.76-5.29-5.16v-2.9L120.45,118c0-1.64-.25-1.89-1.51-3.15l-9.82,10.58-2.27-1.76c4.78-10.07,12.21-16.75,18.76-16.75,3.53,0,5,1.64,5,5.16,0,.5-.13,1.38-.25,2.39l-6.17,45.7c0,1.76.13,2.14,1.38,3.27l9.95-10.7,2.27,1.89C133,164.7,125.61,171.5,119.31,171.5Zm8.44-72.9c-3.27,0-5.16-2-5.16-5.41,0-5.41,2.64-8.69,7.18-8.69,3.27,0,5.16,1.89,5.16,5.54C134.92,95.45,132.28,98.6,127.75,98.6Z"/><path class="cls-2" d="M192.58,171.5c-12.21,0-19.77-9.82-19.77-26.19,0-21.4,13-38.4,29.71-38.4,12.34,0,19.77,9.69,19.77,25.81C222.29,154.25,209.2,171.5,192.58,171.5ZM201,111.32c-14.48,0-17.38,26.57-17.38,36.76,0,13,3.15,19,10.33,19,14.35,0,17.63-26.19,17.63-36.64C211.59,117.86,208.07,111.32,201,111.32Z"/></g></g></svg>