<?xml version="1.0" encoding="UTF-8"?>
<svg width="128px" height="128px" viewBox="0 0 128 128" version="1.1" xmlns="http://www.w3.org/2000/svg" xmlns:xlink="http://www.w3.org/1999/xlink">
    <!-- Generator: Sketch 63.1 (92452) - https://sketch.com -->
    <title>icon</title>
    <desc>Created with Sketch.</desc>
    <defs>
        <polygon id="path-1" points="0 -4.5e-05 13.5 -4.5e-05 13.5 8.399925 0 8.399925"></polygon>
        <polygon id="path-3" points="9e-05 0 11.69415 0 11.69415 9.6687 9e-05 9.6687"></polygon>
        <polygon id="path-5" points="0 0.00018 13.517865 0.00018 13.517865 13.5 0 13.5"></polygon>
        <polygon id="path-7" points="0 9e-05 13.5 9e-05 13.5 13.1664592 0 13.1664592"></polygon>
        <polygon id="path-9" points="0.275985 0.200835 8.999955 0.200835 8.999955 9.4275 0.275985 9.4275"></polygon>
        <polygon id="path-11" points="0.5 0.343665 0.9299 0.343665 0.9299 1.936215 0.5 1.936215"></polygon>
        <polygon id="path-13" points="0.3574 0.12625 0.8574 0.12625 0.8574 0.5 0.3574 0.5"></polygon>
        <polygon id="path-15" points="0.3528 0.0911 0.8528 0.0911 0.8528 0.5 0.3528 0.5"></polygon>
        <polygon id="path-17" points="0.2749 0.05685 0.7749 0.05685 0.7749 0.5 0.2749 0.5"></polygon>
        <polygon id="path-19" points="0.307395 0.43749 6.75 0.43749 6.75 6.29173998 0.307395 6.29173998"></polygon>
        <polygon id="path-21" points="0.00036 4.5e-05 8.02125 4.5e-05 8.02125 13.5 0.00036 13.5"></polygon>
        <polygon id="path-23" points="0 0.00018 13.49991 0.00018 13.49991 10.971045 0 10.971045"></polygon>
        <polygon id="path-25" points="0.00018 4.5e-05 13.4999864 4.5e-05 13.4999864 11.700045 0.00018 11.700045"></polygon>
        <polygon id="path-27" points="0 0 13.4354259 0 13.4354259 13.49964 0 13.49964"></polygon>
        <polygon id="path-29" points="0.00018 9e-05 13.5 9e-05 13.5 9.495045 0.00018 9.495045"></polygon>
        <polygon id="path-31" points="0 0 12.9906 0 12.9906 13.5 0 13.5"></polygon>
    </defs>
    <g id="icon" stroke="none" stroke-width="1" fill="none" fill-rule="evenodd">
        <rect fill="#D44816" x="0" y="0" width="128" height="128"></rect>
        <g id="icon-behance" transform="translate(10.000000, 10.000000)">
            <rect id="Rectangle" x="0" y="0" width="27" height="27"></rect>
            <g id="Group-3" transform="translate(6.750000, 9.450000)">
                <g id="Fill-1-Clipped">
                    <mask id="mask-2" fill="white">
                        <use xlink:href="#path-1"></use>
                    </mask>
                    <g id="path-1"></g>
                    <path d="M11.865915,4.534605 C11.836665,4.116555 11.697165,3.800205 11.445615,3.584205 C11.196315,3.366855 10.884915,3.257955 10.513215,3.257955 C10.108665,3.257955 9.796365,3.374505 9.574515,3.603555 C9.351315,3.831705 9.212265,4.141755 9.155115,4.535055 L11.865915,4.535055 L11.865915,4.534605 Z M13.446765,4.378005 C13.487715,4.652955 13.506165,5.051205 13.498515,5.572755 L9.117765,5.572755 C9.141615,6.177105 9.350415,6.600555 9.746415,6.842205 C9.984915,6.994305 10.274715,7.068105 10.613565,7.068105 C10.970865,7.068105 11.262465,6.978105 11.486565,6.792255 C11.608965,6.693705 11.716515,6.554655 11.809665,6.379605 L13.415265,6.379605 C13.373415,6.736455 13.179915,7.098705 12.832515,7.466805 C12.294315,8.051805 11.539215,8.345205 10.569915,8.345205 C9.768915,8.345205 9.062865,8.097705 8.449965,7.604505 C7.839315,7.109955 7.532865,6.307155 7.532865,5.194305 C7.532865,4.150305 7.807815,3.351555 8.360415,2.795805 C8.915265,2.238255 9.631215,1.961055 10.513215,1.961055 C11.036115,1.961055 11.507715,2.054655 11.928015,2.242305 C12.347415,2.430405 12.693915,2.726505 12.966615,3.133755 C13.213665,3.491955 13.372515,3.906405 13.446765,4.378005 L13.446765,4.378005 Z M5.114565,5.744205 C5.114565,5.308605 4.936365,5.006655 4.580415,4.844655 C4.381065,4.752405 4.100265,4.705605 3.740265,4.702455 L1.937565,4.702455 L1.937565,6.941205 L3.712365,6.941205 C4.076865,6.941205 4.359015,6.893055 4.562865,6.793605 C4.930065,6.610455 5.114565,6.262155 5.114565,5.744205 L5.114565,5.744205 Z M1.937565,3.311505 L3.714615,3.311505 C4.080015,3.311505 4.375215,3.242205 4.602465,3.103155 C4.830165,2.965005 4.943565,2.718855 4.943565,2.365155 C4.943565,1.974555 4.793265,1.714455 4.492215,1.589805 C4.233465,1.503405 3.902265,1.458405 3.500865,1.458405 L1.937565,1.458405 L1.937565,3.311505 Z M6.557265,4.634505 C6.775065,4.972455 6.884415,5.382855 6.884415,5.864355 C6.884415,6.362505 6.761565,6.810255 6.511365,7.204905 C6.352065,7.466355 6.154515,7.686855 5.916915,7.864605 C5.649615,8.069805 5.332815,8.211105 4.968765,8.286255 C4.603815,8.361855 4.208715,8.400105 3.783015,8.400105 L-0.000135,8.400105 L-0.000135,-4.5e-05 L4.056615,-4.5e-05 C5.079015,0.016605 5.803965,0.312705 6.232365,0.894555 C6.489315,1.251405 6.616215,1.679805 6.616215,2.177505 C6.616215,2.690955 6.487515,3.101805 6.228315,3.414105 C6.083865,3.588705 5.870565,3.748455 5.588415,3.892005 C6.015915,4.048605 6.340365,4.295205 6.557265,4.634505 L6.557265,4.634505 Z M12.191715,1.188405 L8.809065,1.188405 L8.809065,0.348255 L12.191715,0.348255 L12.191715,1.188405 Z" id="Fill-1" fill="#FFFFFF" fill-rule="nonzero" mask="url(#mask-2)"></path>
                </g>
            </g>
        </g>
        <g id="icon-bitbucket" transform="translate(37.000000, 10.000000)">
            <rect id="Rectangle" x="0" y="0" width="27" height="27"></rect>
            <g id="Group-8" transform="translate(7.650000, 6.750000)">
                <g id="Group-3">
                    <g id="Fill-1-Clipped">
                        <mask id="mask-4" fill="white">
                            <use xlink:href="#path-3"></use>
                        </mask>
                        <g id="path-1"></g>
                        <path d="M5.84694,2.5416 C3.78324,2.5416 2.10204,2.178 2.10204,1.7388 C2.10204,1.29915 3.78324,0.9459 5.84694,0.9459 C7.91064,0.9459 9.59229,1.30905 9.59229,1.74825 C9.58284,2.1879 7.91064,2.5416 5.84694,2.5416 M5.84694,8.36955 C4.82499,8.36955 3.99384,7.5384 3.99384,6.516 C3.99384,5.4936 4.82499,4.66245 5.84694,4.66245 C6.86934,4.66245 7.70049,5.4936 7.70049,6.516 C7.70049,7.5384 6.86934,8.36955 5.84694,8.36955 M5.84694,0 L5.84694,0 C2.62764,0 9e-05,0.8694 9e-05,1.9395 C9e-05,2.22615 0.69759,6.27705 0.98379,7.89165 C1.10844,8.61795 2.97099,9.6687 5.84694,9.6687 L5.84694,9.65925 L5.84694,9.6687 C8.72289,9.6687 10.58589,8.60805 10.71054,7.89165 C10.98729,6.2865 11.69424,2.22615 11.69424,1.9395 C11.68479,0.8694 9.05724,0 5.84694,0" id="Fill-1" fill="#FFFFFF" fill-rule="nonzero" mask="url(#mask-4)"></path>
                    </g>
                </g>
                <path d="M10.041525,9.50652 C9.955575,9.50652 9.879075,9.57312 9.879075,9.57312 C9.879075,9.57312 8.436375,10.71027 5.837625,10.71027 C3.238875,10.71027 1.796175,9.57312 1.796175,9.57312 C1.796175,9.57312 1.729125,9.50652 1.633725,9.50652 C1.528425,9.50652 1.423575,9.57312 1.423575,9.73557 L1.423575,9.78327 C1.643175,10.97802 1.805625,11.82807 1.834425,11.95227 C2.025675,12.83157 3.745125,13.49982 5.818275,13.49982 C7.891875,13.49982 9.611325,12.84057 9.802575,11.95227 C9.830925,11.81862 9.993825,10.97802 10.213425,9.78327 L10.213425,9.73557 C10.251675,9.57312 10.146375,9.50652 10.041525,9.50652" id="Fill-4" fill="#FFFFFF" fill-rule="nonzero"></path>
                <path d="M5.84694,5.57955 C6.35904,5.57955 6.77394,5.99445 6.77394,6.50655 C6.77394,7.0182 6.35904,7.4331 5.84694,7.4331 C5.33529,7.4331 4.92039,7.0182 4.92039,6.50655 C4.92039,5.99445 5.33529,5.57955 5.84694,5.57955" id="Fill-6" fill="#FFFFFF" fill-rule="nonzero"></path>
            </g>
        </g>
        <g id="icon-dribbble" transform="translate(64.000000, 10.000000)">
            <rect id="Rectangle" x="0" y="0" width="27" height="27"></rect>
            <g id="Group-3" transform="translate(6.750000, 6.750000)">
                <g id="Fill-1-Clipped">
                    <mask id="mask-6" fill="white">
                        <use xlink:href="#path-5"></use>
                    </mask>
                    <g id="path-1"></g>
                    <path d="M11.227815,3.11283 C11.105865,3.27708 10.138815,4.51548 8.004015,5.38623 C8.138565,5.66073 8.267265,5.93973 8.387415,6.22098 C8.429715,6.32088 8.471115,6.42033 8.511615,6.51843 C10.432665,6.27723 12.341115,6.66423 12.531465,6.70428 C12.518865,5.34348 12.031965,4.09383 11.227815,3.11283 M5.406165,1.15353 C5.565465,1.36683 6.614415,2.79288 7.560315,4.52853 C9.613215,3.75993 10.482165,2.59398 10.586115,2.44638 C9.566415,1.54278 8.225865,0.99333 6.758865,0.99333 C6.293115,0.99333 5.840415,1.04913 5.406165,1.15353 M1.107765,5.57793 C1.366065,5.58108 3.744315,5.59188 6.445215,4.87548 C5.488515,3.17763 4.456665,1.74978 4.304565,1.54098 C2.689515,2.30193 1.482165,3.78873 1.107765,5.57793 M2.469915,10.61388 C2.600865,10.39023 4.185315,7.77033 7.162515,6.80913 C7.237665,6.78483 7.313715,6.76188 7.390215,6.74073 C7.245315,6.41313 7.087365,6.08508 6.922215,5.76243 C4.039065,6.62373 1.241415,6.58773 0.988965,6.58278 C0.987165,6.64128 0.985815,6.69978 0.985815,6.75918 C0.985815,8.23968 1.547865,9.59148 2.469915,10.61388 M9.014265,12.06603 C8.928315,11.56023 8.593065,9.79713 7.782615,7.69428 C7.770015,7.69788 7.757415,7.70238 7.744365,7.70688 C4.488165,8.83998 3.319065,11.09493 3.215115,11.30733 C4.194315,12.06918 5.424615,12.52413 6.758865,12.52413 C7.558965,12.52413 8.321265,12.36123 9.014265,12.06603 M12.459015,7.67403 C12.261915,7.61148 10.672515,7.13808 8.863065,7.42743 C9.618165,9.49968 9.925515,11.18718 9.984915,11.53863 C11.280015,10.66338 12.202065,9.27828 12.459015,7.67403 M6.758865,13.50018 C3.031965,13.50018 -0.000135,10.47213 -0.000135,6.75018 C-0.000135,3.02823 3.031965,0.00018 6.758865,0.00018 C10.486215,0.00018 13.517865,3.02823 13.517865,6.75018 C13.517865,10.47213 10.486215,13.50018 6.758865,13.50018" id="Fill-1" fill="#FFFFFF" fill-rule="nonzero" mask="url(#mask-6)"></path>
                </g>
            </g>
        </g>
        <g id="icon-facebook" transform="translate(91.000000, 10.000000)">
            <rect id="Rectangle" x="0" y="0" width="27" height="27"></rect>
            <path d="M14.4504,20.25 L14.4504,14.09175 L16.51725,14.09175 L16.82685,11.6919 L14.4504,11.6919 L14.4504,10.1601 C14.4504,9.4653 14.64345,8.99145 15.63975,8.99145 L16.91055,8.991 L16.91055,6.8445 C16.69095,6.81525 15.9363,6.75 15.0588,6.75 C13.2264,6.75 11.97225,7.86825 11.97225,9.92205 L11.97225,11.6919 L9.9,11.6919 L9.9,14.09175 L11.97225,14.09175 L11.97225,20.25 L14.4504,20.25 Z" id="Fill-1" fill="#FFFFFF" fill-rule="nonzero"></path>
        </g>
        <g id="icon-github" transform="translate(10.000000, 37.000000)">
            <rect id="Rectangle" x="0" y="0" width="27" height="27"></rect>
            <g id="Group-3" transform="translate(6.750000, 6.750000)">
                <g id="Fill-1-Clipped">
                    <mask id="mask-8" fill="white">
                        <use xlink:href="#path-7"></use>
                    </mask>
                    <g id="path-1"></g>
                    <path d="M6.74955,4.5e-05 C3.02265,4.5e-05 0,3.022245 0,6.750495 C0,9.732195 1.9341,12.262545 4.61655,13.154895 C4.95405,13.216995 5.0769,13.008645 5.0769,12.829995 C5.0769,12.669345 5.0715,12.244995 5.0679,11.681595 C3.1905,12.089295 2.79405,10.776645 2.79405,10.776645 C2.48715,9.997245 2.0448,9.789345 2.0448,9.789345 C1.4319,9.370395 2.0907,9.379395 2.0907,9.379395 C2.7684,9.426645 3.1248,10.075095 3.1248,10.075095 C3.7269,11.106495 4.70475,10.808595 5.0895,10.635795 C5.1507,10.199295 5.3253,9.901845 5.51835,9.733095 C4.0194,9.562995 2.4435,8.983845 2.4435,6.397245 C2.4435,5.660145 2.70675,5.057595 3.1383,4.585545 C3.06855,4.415445 2.83725,3.728745 3.20445,2.799495 C3.20445,2.799495 3.771,2.617695 5.0607,3.491595 C5.5989,3.341745 6.1767,3.267045 6.75045,3.264345 C7.3233,3.267045 7.9011,3.341745 8.4402,3.491595 C9.729,2.617695 10.29465,2.799495 10.29465,2.799495 C10.66275,3.728745 10.43145,4.415445 10.3617,4.585545 C10.79415,5.057595 11.0556,5.660145 11.0556,6.397245 C11.0556,8.990595 9.47745,9.560745 7.974,9.727695 C8.2161,9.936495 8.43165,10.348245 8.43165,10.978245 C8.43165,11.880045 8.424,12.608595 8.424,12.829995 C8.424,13.009995 8.54505,13.220145 8.88795,13.153995 C11.5677,12.259845 13.5,9.731745 13.5,6.750495 C13.5,3.022245 10.47735,4.5e-05 6.74955,4.5e-05" id="Fill-1" fill="#FFFFFF" fill-rule="nonzero" mask="url(#mask-8)"></path>
                </g>
            </g>
        </g>
        <g id="icon-instagram" transform="translate(37.000000, 37.000000)">
            <rect id="Rectangle" x="0" y="0" width="27" height="27"></rect>
            <path d="M13.5,7.9666875 C15.30225,7.9666875 15.516,7.9734375 16.228125,8.0060625 C18.057375,8.0893125 18.9118125,8.95725 18.9950625,10.773 C19.0276875,11.4845625 19.033875,11.6983125 19.033875,13.5005625 C19.033875,15.303375 19.027125,15.5165625 18.9950625,16.228125 C18.91125,18.0421875 18.0590625,18.9118125 16.228125,18.9950625 C15.516,19.0276875 15.303375,19.0344375 13.5,19.0344375 C11.69775,19.0344375 11.484,19.0276875 10.7724375,18.9950625 C8.9386875,18.91125 8.08875,18.039375 8.0055,16.2275625 C7.972875,15.516 7.966125,15.3028125 7.966125,13.5 C7.966125,11.69775 7.9734375,11.4845625 8.0055,10.7724375 C8.0893125,8.95725 8.9415,8.08875 10.7724375,8.0055 C11.4845625,7.9734375 11.69775,7.9666875 13.5,7.9666875 L13.5,7.9666875 Z M13.5,6.75 C11.6668125,6.75 11.4373125,6.757875 10.7173125,6.7905 C8.2659375,6.903 6.9035625,8.263125 6.7910625,10.71675 C6.757875,11.4373125 6.75,11.6668125 6.75,13.5 C6.75,15.3331875 6.757875,15.56325 6.7905,16.28325 C6.903,18.734625 8.263125,20.097 10.71675,20.2095 C11.4373125,20.242125 11.6668125,20.25 13.5,20.25 C15.3331875,20.25 15.56325,20.242125 16.28325,20.2095 C18.732375,20.097 20.098125,18.736875 20.2089375,16.28325 C20.242125,15.56325 20.25,15.3331875 20.25,13.5 C20.25,11.6668125 20.242125,11.4373125 20.2095,10.7173125 C20.09925,8.2681875 18.7374375,6.9035625 16.2838125,6.7910625 C15.56325,6.757875 15.3331875,6.75 13.5,6.75 Z M13.5,10.033875 C11.5858125,10.033875 10.033875,11.5858125 10.033875,13.5 C10.033875,15.4141875 11.5858125,16.9666875 13.5,16.9666875 C15.4141875,16.9666875 16.966125,15.41475 16.966125,13.5 C16.966125,11.5858125 15.4141875,10.033875 13.5,10.033875 Z M13.5,15.75 C12.2574375,15.75 11.25,14.743125 11.25,13.5 C11.25,12.2574375 12.2574375,11.25 13.5,11.25 C14.7425625,11.25 15.75,12.2574375 15.75,13.5 C15.75,14.743125 14.7425625,15.75 13.5,15.75 Z M17.103375,9.0871875 C16.655625,9.0871875 16.2928125,9.45 16.2928125,9.8971875 C16.2928125,10.344375 16.655625,10.7071875 17.103375,10.7071875 C17.5505625,10.7071875 17.9128125,10.344375 17.9128125,9.8971875 C17.9128125,9.45 17.5505625,9.0871875 17.103375,9.0871875 Z" id="Shape" fill="#FFFFFF" fill-rule="nonzero"></path>
        </g>
        <g id="icon-linkedin" transform="translate(64.000000, 37.000000)">
            <rect id="Rectangle" x="0" y="0" width="27" height="27"></rect>
            <g id="Group" transform="translate(6.750045, 7.200000)">
                <polygon id="Fill-1" fill="#FFFFFF" fill-rule="nonzero" points="0.221805 13.4775 3.020805 13.4775 3.020805 4.4757 0.221805 4.4757"></polygon>
                <path d="M1.6218,7.99360578e-15 C2.51595,7.99360578e-15 3.24315,0.7272 3.24315,1.6218 C3.24315,2.51775 2.51595,3.2445 1.6218,3.2445 C0.72495,3.2445 -2.71782596e-14,2.51775 -2.71782596e-14,1.6218 C-2.71782596e-14,0.7272 0.72495,7.99360578e-15 1.6218,7.99360578e-15" id="Fill-2" fill="#FFFFFF" fill-rule="nonzero"></path>
                <g id="Fill-4-Clipped" transform="translate(4.500000, 4.050000)">
                    <mask id="mask-10" fill="white">
                        <use xlink:href="#path-9"></use>
                    </mask>
                    <g id="path-1"></g>
                    <path d="M0.275985,0.425385 L2.959785,0.425385 L2.959785,1.654785 L2.998035,1.654785 C3.371535,0.947385 4.284585,0.200835 5.645835,0.200835 C8.477235,0.200835 9.000135,2.065185 9.000135,4.489785 L9.000135,9.427635 L6.205185,9.427635 L6.205185,5.050035 C6.205185,4.005585 6.184935,2.662785 4.750785,2.662785 C3.295035,2.662785 3.072735,3.799935 3.072735,4.973985 L3.072735,9.427635 L0.275985,9.427635 L0.275985,0.425385 Z" id="Fill-4" fill="#FFFFFF" fill-rule="nonzero" mask="url(#mask-10)"></path>
                </g>
            </g>
        </g>
        <g id="icon-pinterest" transform="translate(91.000000, 37.000000)">
            <rect id="Rectangle" x="0" y="0" width="27" height="27"></rect>
            <path d="M13.6413,6.75 C9.95715,6.75 8.1,9.3915 8.1,11.59425 C8.1,12.9276 8.6049,14.11425 9.6876,14.5566 C9.8649,14.62905 10.0242,14.55885 10.0755,14.36265 C10.1115,14.2263 10.19655,13.88295 10.23435,13.7403 C10.2861,13.54545 10.26585,13.4775 10.12275,13.30785 C9.81,12.9393 9.61065,12.46275 9.61065,11.7873 C9.61065,9.82755 11.0772,8.07345 13.42845,8.07345 C15.5106,8.07345 16.65495,9.3456 16.65495,11.0448 C16.65495,13.28085 15.6654,15.1677 14.1966,15.1677 C13.3857,15.1677 12.7782,14.49675 12.97305,13.67415 C13.2057,12.6918 13.65705,11.6316 13.65705,10.9224 C13.65705,10.2879 13.3164,9.7587 12.6117,9.7587 C11.78235,9.7587 11.11635,10.6164 11.11635,11.7657 C11.11635,12.4974 11.3634,12.9924 11.3634,12.9924 C11.3634,12.9924 10.5147,16.58835 10.3662,17.2179 C10.06965,18.47205 10.32165,20.00925 10.3428,20.16495 C10.35495,20.25675 10.4733,20.27835 10.52685,20.20905 C10.60335,20.10915 11.5911,18.8901 11.9268,17.6715 C12.02175,17.32635 12.4722,15.53985 12.4722,15.53985 C12.74175,16.05375 13.52925,16.50645 14.36625,16.50645 C16.85925,16.50645 18.55035,14.23395 18.55035,11.1924 C18.55035,8.892 16.6023,6.75 13.6413,6.75" id="Fill-1" fill="#FFFFFF" fill-rule="nonzero"></path>
        </g>
        <g id="icon-soundcloud" transform="translate(10.000000, 64.000000)">
            <rect id="Rectangle" x="0" y="0" width="27" height="27"></rect>
            <g id="Group-40" transform="translate(6.750000, 9.900000)">
                <path d="M1.101915,3.49227 C1.073565,3.49227 1.049715,3.51522 1.045665,3.54672 L0.913365,4.75902 L1.045665,5.94432 C1.049715,5.97672 1.073565,5.99922 1.101915,5.99922 C1.130265,5.99922 1.153215,5.97672 1.158165,5.94477 L1.308915,4.75902 L1.158165,3.54672 C1.153215,3.51477 1.130265,3.49227 1.101915,3.49227" id="Fill-1" fill="#FFFFFF" fill-rule="nonzero"></path>
                <g id="Group-5" transform="translate(0.000000, 3.612690)">
                    <g id="Fill-3-Clipped">
                        <mask id="mask-12" fill="white">
                            <use xlink:href="#path-11"></use>
                        </mask>
                        <g id="path-1"></g>
                        <path d="M0.6699,0.343665 C0.6384,0.343665 0.6139,0.365715 0.6094,0.396765 L0.4999,1.146465 L0.6094,1.883565 C0.6139,1.914165 0.6384,1.936215 0.6699,1.936215 C0.7004,1.936215 0.7249,1.914615 0.7299,1.883565 L0.8599,1.146465 L0.7299,0.396315 C0.7249,0.365715 0.7004,0.343665 0.6699,0.343665" id="Fill-3" fill="#FFFFFF" fill-rule="nonzero" mask="url(#mask-12)"></path>
                    </g>
                </g>
                <path d="M1.63233,3.254535 C1.59678,3.254535 1.56798,3.282435 1.56483,3.320685 L1.43883,4.759335 L1.56483,6.145335 C1.56798,6.183585 1.59678,6.211485 1.63233,6.211485 C1.66743,6.211485 1.69578,6.183585 1.69983,6.145335 L1.84293,4.759335 L1.69983,3.320685 C1.69578,3.282435 1.66743,3.254535 1.63233,3.254535" id="Fill-6" fill="#FFFFFF" fill-rule="nonzero"></path>
                <path d="M2.167155,3.20355 C2.125305,3.20355 2.091105,3.23685 2.087955,3.2814 L1.968705,4.75965 L2.087955,6.1893 C2.091105,6.2334 2.125305,6.26715 2.167155,6.26715 C2.208555,6.26715 2.242305,6.2334 2.245905,6.1893 L2.381355,4.75965 L2.245905,3.2814 C2.242305,3.23685 2.208555,3.20355 2.167155,3.20355" id="Fill-8" fill="#FFFFFF" fill-rule="nonzero"></path>
                <g id="Group-12" transform="translate(2.250000, 5.862690)">
                    <g id="Fill-10-Clipped">
                        <mask id="mask-14" fill="white">
                            <use xlink:href="#path-13"></use>
                        </mask>
                        <g id="path-3"></g>
                        <polygon id="Fill-10" fill="#FFFFFF" fill-rule="nonzero" mask="url(#mask-14)" points="0.6074 0.376 0.6074 0.376 0.6074 0.3765"></polygon>
                    </g>
                </g>
                <path d="M2.79666,3.38814 C2.79306,3.33774 2.75436,3.29904 2.70576,3.29904 C2.65716,3.29904 2.61846,3.33774 2.61531,3.38859 L2.50281,4.75974 L2.61531,6.20109 C2.61846,6.25194 2.65716,6.29064 2.70576,6.29064 C2.75436,6.29064 2.79306,6.25194 2.79666,6.20109 L2.92401,4.75974 L2.79666,3.38814 Z" id="Fill-13" fill="#FFFFFF" fill-rule="nonzero"></path>
                <path d="M3.24954,2.42838 C3.19509,2.42838 3.15009,2.47293 3.14739,2.52963 L3.04164,4.76028 L3.14739,6.20163 C3.15009,6.25788 3.19509,6.30243 3.24954,6.30243 C3.30354,6.30243 3.34854,6.25788 3.35169,6.20163 L3.35169,6.20208 L3.47094,4.76028 L3.35169,2.52963 C3.34854,2.47293 3.30354,2.42838 3.24954,2.42838" id="Fill-15" fill="#FFFFFF" fill-rule="nonzero"></path>
                <path d="M3.78873,1.91466 C3.72753,1.91466 3.67758,1.96371 3.67488,2.02716 L3.57633,4.76811 L3.67533,6.20046 C3.67758,6.26301 3.72753,6.31251 3.78873,6.31251 C3.84948,6.31251 3.89943,6.26301 3.90258,6.20001 L3.90213,6.20046 L4.01418,4.76811 L3.90258,2.02716 C3.89943,1.96371 3.84948,1.91466 3.78873,1.91466" id="Fill-17" fill="#FFFFFF" fill-rule="nonzero"></path>
                <path d="M4.34925,1.6668 C4.2813,1.6668 4.2264,1.7217 4.22415,1.791 L4.1319,4.761 L4.22415,6.1785 C4.2264,6.2478 4.2813,6.30225 4.34925,6.30225 C4.41675,6.30225 4.47165,6.2478 4.47435,6.17805 L4.47435,6.1785 L4.5783,4.761 L4.47435,1.791 C4.47165,1.72125 4.41675,1.6668 4.34925,1.6668" id="Fill-19" fill="#FFFFFF" fill-rule="nonzero"></path>
                <path d="M5.04252,1.691415 C5.04027,1.614915 4.97997,1.555515 4.90572,1.555515 C4.83102,1.555515 4.77117,1.614915 4.76892,1.691415 L4.68387,4.760865 L4.76892,6.169815 C4.77117,6.245415 4.83102,6.305265 4.90572,6.305265 C4.97997,6.305265 5.03982,6.245415 5.04252,6.169365 L5.13837,4.760865 L5.04252,1.691415 Z" id="Fill-21" fill="#FFFFFF" fill-rule="nonzero"></path>
                <g id="Group-25" transform="translate(4.500000, 5.862690)">
                    <g id="Fill-23-Clipped">
                        <mask id="mask-16" fill="white">
                            <use xlink:href="#path-15"></use>
                        </mask>
                        <g id="path-5"></g>
                        <polygon id="Fill-23" fill="#FFFFFF" fill-rule="nonzero" mask="url(#mask-16)" points="0.6028 0.34085 0.6028 0.34085 0.6028 0.34135"></polygon>
                    </g>
                </g>
                <path d="M5.466555,1.62243 C5.385105,1.62243 5.319855,1.68768 5.318055,1.77003 L5.239755,4.76118 L5.318055,6.15663 C5.319855,6.23898 5.385105,6.30333 5.466555,6.30333 C5.547555,6.30333 5.612355,6.23898 5.614605,6.15573 L5.614605,6.15708 L5.702805,4.76118 L5.614605,1.76958 C5.612355,1.68723 5.547555,1.62243 5.466555,1.62243" id="Fill-26" fill="#FFFFFF" fill-rule="nonzero"></path>
                <path d="M6.03171,1.71999 C5.94351,1.71999 5.87331,1.79019 5.87196,1.87929 L5.80041,4.76154 L5.87196,6.14799 C5.87331,6.23619 5.94351,6.30594 6.03171,6.30594 C6.11901,6.30594 6.18966,6.23619 6.19146,6.14709 L6.19146,6.14844 L6.27156,4.76154 L6.19146,1.87929 C6.18966,1.78974 6.11901,1.71999 6.03171,1.71999" id="Fill-28" fill="#FFFFFF" fill-rule="nonzero"></path>
                <path d="M6.69573,1.19043 C6.66828,1.17198 6.63588,1.16163 6.60123,1.16163 C6.56703,1.16163 6.53553,1.17153 6.50853,1.18908 C6.46218,1.21923 6.43068,1.27233 6.42978,1.33173 L6.42933,1.36458 L6.36498,4.76073 C6.36498,4.76253 6.42978,6.13908 6.42978,6.13908 C6.42978,6.14133 6.43023,6.14313 6.43023,6.14538 C6.43203,6.18363 6.44688,6.21918 6.47028,6.24708 C6.50133,6.28488 6.54858,6.30918 6.60123,6.30918 C6.64758,6.30918 6.68988,6.28983 6.72093,6.25923 C6.75198,6.22818 6.77133,6.18588 6.77223,6.13863 L6.77988,6.00228 L6.84468,4.76208 L6.77223,1.33173 C6.77133,1.27323 6.74118,1.22103 6.69573,1.19043" id="Fill-30" fill="#FFFFFF" fill-rule="nonzero"></path>
                <g id="Group-34" transform="translate(6.300000, 5.862690)">
                    <g id="Fill-32-Clipped">
                        <mask id="mask-18" fill="white">
                            <use xlink:href="#path-17"></use>
                        </mask>
                        <g id="path-7"></g>
                        <polygon id="Fill-32" fill="#FFFFFF" fill-rule="nonzero" mask="url(#mask-18)" points="0.5249 0.3076 0.5249 0.3071 0.5249 0.3076 0.5249 0.3066 0.5249 0.3061 0.5249 0.3066 0.5249 0.3071"></polygon>
                    </g>
                </g>
                <path d="M7.261065,0.865215 C7.233615,0.848565 7.202115,0.838665 7.167915,0.838665 C7.124265,0.838665 7.084215,0.854865 7.052715,0.880515 C7.012215,0.914265 6.986115,0.965115 6.985215,1.021365 L6.984765,1.040265 L6.910065,4.761765 L6.948315,5.449815 L6.985215,6.119865 C6.986565,6.218415 7.068465,6.300315 7.167915,6.300315 C7.267365,6.300315 7.349265,6.218415 7.350615,6.118065 L7.350615,6.119865 L7.432065,4.761765 L7.350615,1.021365 C7.349715,0.954765 7.313715,0.897165 7.261065,0.865215" id="Fill-35" fill="#FFFFFF" fill-rule="nonzero"></path>
                <g id="Group-39" transform="translate(7.200000, 0.012690)">
                    <g id="Fill-37-Clipped">
                        <mask id="mask-20" fill="white">
                            <use xlink:href="#path-19"></use>
                        </mask>
                        <g id="path-9"></g>
                        <path d="M5.089545,2.97864 C4.862295,2.97864 4.644945,3.02499 4.447395,3.10779 C4.315095,1.61154 3.060495,0.43749 1.529595,0.43749 C1.154745,0.43749 0.789795,0.51129 0.467595,0.63594 C0.342045,0.68409 0.308745,0.73404 0.307395,0.83124 L0.307395,6.10074 C0.308745,6.20289 0.387495,6.28164 0.486945,6.29154 C0.490995,6.29199 5.089545,6.29154 5.089545,6.29154 C6.006645,6.29154 6.750045,5.55669 6.750045,4.63914 C6.750045,3.72204 6.006645,2.97864 5.089545,2.97864" id="Fill-37" fill="#FFFFFF" fill-rule="nonzero" mask="url(#mask-20)"></path>
                    </g>
                </g>
            </g>
        </g>
        <g id="icon-tumblr" transform="translate(37.000000, 64.000000)">
            <rect id="Rectangle" x="0" y="0" width="27" height="27"></rect>
            <g id="Group-3" transform="translate(9.450000, 6.750000)">
                <g id="Fill-1-Clipped">
                    <mask id="mask-22" fill="white">
                        <use xlink:href="#path-21"></use>
                    </mask>
                    <g id="path-1"></g>
                    <path d="M7.96176,12.665295 C7.50501,13.153095 6.44661,13.484295 5.49801,13.500045 L5.39406,13.500045 C2.20941,13.500045 1.51776,11.158245 1.51776,9.791595 L1.51776,5.994495 L0.26316,5.994495 C0.11781,5.994495 0.00036,5.877045 0.00036,5.731695 L0.00036,3.938445 C0.00036,3.749445 0.11916,3.580695 0.29781,3.517695 C1.93266,2.941695 2.44521,1.514745 2.52126,0.430245 C2.54196,0.140445 2.69361,4.5e-05 2.94516,4.5e-05 L4.81491,4.5e-05 C4.96026,4.5e-05 5.07816,0.117945 5.07816,0.262845 L5.07816,3.299895 L7.26696,3.299895 C7.41231,3.299895 7.53021,3.417345 7.53066,3.562245 L7.53066,5.717295 C7.53021,5.862645 7.41231,5.980095 7.26696,5.980095 L5.06781,5.980095 L5.06781,9.491445 C5.06781,10.373445 5.64876,10.616895 6.00786,10.616895 C6.35256,10.608345 6.69141,10.503495 6.86151,10.435095 C6.98706,10.384695 7.09821,10.350945 7.19721,10.376145 C7.28946,10.399095 7.35066,10.464345 7.39116,10.584045 L7.97121,12.278745 C8.01846,12.414195 8.05896,12.561795 7.96176,12.665295" id="Fill-1" fill="#FFFFFF" fill-rule="nonzero" mask="url(#mask-22)"></path>
                </g>
            </g>
        </g>
        <g id="icon-twitter" transform="translate(64.000000, 64.000000)">
            <rect id="Rectangle" x="0" y="0" width="27" height="27"></rect>
            <g id="Group-3" transform="translate(6.750000, 8.100000)">
                <g id="Fill-1-Clipped">
                    <mask id="mask-24" fill="white">
                        <use xlink:href="#path-23"></use>
                    </mask>
                    <g id="path-1"></g>
                    <path d="M13.49991,1.298745 C13.00311,1.519245 12.46941,1.667745 11.90916,1.734795 C12.48111,1.392345 12.92031,0.849195 13.12686,0.202545 C12.59181,0.520245 11.99916,0.750645 11.36826,0.874845 C10.86336,0.336195 10.14336,4.5e-05 9.34686,4.5e-05 C7.81686,4.5e-05 6.57666,1.240245 6.57666,2.769795 C6.57666,2.986695 6.60141,3.198195 6.64821,3.400695 C4.34646,3.285495 2.30571,2.182545 0.93996,0.507195 C0.70146,0.915795 0.56466,1.391895 0.56466,1.899495 C0.56466,2.860245 1.05381,3.708045 1.79676,4.204845 C1.34271,4.190445 0.91566,4.065795 0.54261,3.858345 C0.54216,3.870045 0.54216,3.881295 0.54216,3.892995 C0.54216,5.235345 1.49706,6.354495 2.76426,6.608745 C2.53161,6.672195 2.28681,6.705945 2.03436,6.705945 C1.85571,6.705945 1.68201,6.688845 1.51281,6.656445 C1.86561,7.756695 2.88846,8.557695 4.10031,8.579745 C3.15261,9.322695 1.95831,9.765495 0.66096,9.765495 C0.43731,9.765495 0.21636,9.752445 -9e-05,9.726795 C1.22571,10.512945 2.68146,10.971045 4.24566,10.971045 C9.34011,10.971045 12.12606,6.750945 12.12606,3.090645 C12.12606,2.970495 12.12291,2.851245 12.11796,2.732445 C12.65931,2.341845 13.12866,1.854045 13.49991,1.298745" id="Fill-1" fill="#FFFFFF" fill-rule="nonzero" mask="url(#mask-24)"></path>
                </g>
            </g>
        </g>
        <g id="icon-vimeo" transform="translate(91.000000, 64.000000)">
            <rect id="Rectangle" x="0" y="0" width="27" height="27"></rect>
            <g id="Group-3" transform="translate(6.750000, 7.650000)">
                <g id="Fill-1-Clipped">
                    <mask id="mask-26" fill="white">
                        <use xlink:href="#path-25"></use>
                    </mask>
                    <g id="path-1"></g>
                    <path d="M13.49343,2.70684 C13.43358,4.02354 12.51558,5.82669 10.74033,8.11494 C8.90478,10.50489 7.35183,11.70009 6.08148,11.70009 C5.29488,11.70009 4.62843,10.97244 4.08483,9.51669 C3.72168,8.18199 3.35853,6.84774 2.99493,5.51304 C2.59083,4.05819 2.15793,3.32964 1.69443,3.32964 C1.59363,3.32964 1.24038,3.54249 0.63513,3.96684 L0.00018,3.14739 C0.66618,2.56059 1.32363,1.97379 1.97028,1.38654 C2.85858,0.61704 3.52593,0.21294 3.97053,0.17199 C5.02128,0.07074 5.66793,0.79029 5.91048,2.33064 C6.17283,3.99249 6.35418,5.02614 6.45633,5.43069 C6.75918,6.80949 7.09218,7.49799 7.45623,7.49799 C7.73883,7.49799 8.16318,7.05069 8.72928,6.15654 C9.29448,5.26239 9.59733,4.58154 9.63828,4.11399 C9.71883,3.34224 9.41598,2.95524 8.72928,2.95524 C8.40618,2.95524 8.07318,3.02994 7.73028,3.17709 C8.39358,0.99954 9.66123,-0.05796 11.53233,0.00234 C12.91968,0.04329 13.57353,0.94464 13.49343,2.70684" id="Fill-1" fill="#FFFFFF" fill-rule="nonzero" mask="url(#mask-26)"></path>
                </g>
            </g>
        </g>
        <g id="icon-whatsapp" transform="translate(10.000000, 91.000000)">
            <rect id="Rectangle" x="0" y="0" width="27" height="27"></rect>
            <g id="Group-3" transform="translate(6.750000, 6.750000)">
                <g id="Fill-1-Clipped">
                    <mask id="mask-28" fill="white">
                        <use xlink:href="#path-27"></use>
                    </mask>
                    <g id="path-1"></g>
                    <path d="M9.795825,8.08974 C9.628425,8.00604 8.806725,7.60194 8.653725,7.54614 C8.500275,7.49034 8.388675,7.46244 8.277525,7.62984 C8.165925,7.79724 7.845525,8.17389 7.747875,8.28549 C7.650675,8.39664 7.553475,8.41059 7.386075,8.32689 C7.218675,8.24364 6.680025,8.06679 6.041925,7.49754 C5.545125,7.05384 5.209875,6.50664 5.112225,6.33924 C5.014575,6.17184 5.101425,6.08184 5.185125,5.99859 C5.260725,5.92344 5.352525,5.80329 5.436225,5.70519 C5.519475,5.60754 5.547375,5.53824 5.603175,5.42664 C5.658975,5.31504 5.631075,5.21739 5.589225,5.13414 C5.547375,5.04999 5.213025,4.22739 5.073975,3.89259 C4.938075,3.56679 4.800375,3.61089 4.697775,3.60549 C4.600575,3.60054 4.488975,3.59964 4.377375,3.59964 C4.266225,3.59964 4.084875,3.64149 3.931875,3.80889 C3.778425,3.97629 3.346875,4.38084 3.346875,5.20344 C3.346875,6.02604 3.945825,6.82119 4.029525,6.93279 C4.112775,7.04439 5.208075,8.73279 6.884325,9.45639 C7.283475,9.62874 7.594425,9.73134 7.837425,9.80829 C8.237925,9.93609 8.602425,9.91764 8.889975,9.87489 C9.211275,9.82674 9.879525,9.47034 10.018575,9.08019 C10.158075,8.68959 10.158075,8.35479 10.116225,8.28549 C10.074375,8.21529 9.962775,8.17389 9.795825,8.08974 M6.746175,12.25404 L6.743475,12.25404 C5.745825,12.25404 4.767075,11.98584 3.913875,11.47914 L3.710925,11.35899 L1.606275,11.91069 L2.167875,9.85914 L2.035575,9.64854 C1.479375,8.76339 1.185075,7.74009 1.18552397,6.68979 C1.186875,3.62394 3.681225,1.12959 6.748425,1.12959 C8.232975,1.13049 9.629325,1.70919 10.679175,2.76039 C11.728575,3.81114 12.306375,5.20839 12.3059255,6.69384 C12.304575,9.75969 9.810225,12.25404 6.746175,12.25404 M11.477925,1.96209 C10.215225,0.69714 8.535375,0.00054 6.745725,-0.00036 C3.058425,-0.00036 0.057375,3.00069 0.056025,6.68934 C0.055575,7.86834 0.363375,9.01854 0.949275,10.03329 L-0.000225,13.49964 L3.546225,12.56949 C4.523175,13.10274 5.623875,13.38354 6.743025,13.38399 L6.746175,13.38399 C6.746175,13.38399 6.745725,13.38399 6.746175,13.38399 C10.432575,13.38399 13.434075,10.38294 13.4354267,6.69429 C13.436325,4.90734 12.741075,3.22614 11.477925,1.96209" id="Fill-1" fill="#FFFFFF" fill-rule="nonzero" mask="url(#mask-28)"></path>
                </g>
            </g>
        </g>
        <g id="icon-youtube" transform="translate(37.000000, 91.000000)">
            <rect id="Rectangle" x="0" y="0" width="27" height="27"></rect>
            <g id="Group-3" transform="translate(6.750000, 8.550000)">
                <g id="Fill-1-Clipped">
                    <mask id="mask-30" fill="white">
                        <use xlink:href="#path-29"></use>
                    </mask>
                    <g id="path-1"></g>
                    <path d="M5.35608,6.49854 L5.35563,2.70549 L9.00333,4.60854 L5.35608,6.49854 Z M13.36518,2.04849 C13.36518,2.04849 13.23333,1.11789 12.82833,0.70839 C12.31533,0.17064 11.73978,0.16794 11.47608,0.13644 C9.58653,9e-05 6.75288,9e-05 6.75288,9e-05 L6.74703,9e-05 C6.74703,9e-05 3.91338,9e-05 2.02428,0.13644 C1.76058,0.16794 1.18503,0.17064 0.67158,0.70839 C0.26658,1.11789 0.13473,2.04849 0.13473,2.04849 C0.13473,2.04849 0.00018,3.14109 0.00018,4.23324 L0.00018,5.25744 C0.00018,6.35004 0.13473,7.44264 0.13473,7.44264 C0.13473,7.44264 0.26658,8.37279 0.67158,8.78229 C1.18503,9.32004 1.85958,9.30294 2.15973,9.35919 C3.24018,9.46269 6.75018,9.49509 6.75018,9.49509 C6.75018,9.49509 9.58653,9.49059 11.47608,9.35424 C11.73978,9.32274 12.31533,9.32004 12.82833,8.78229 C13.23333,8.37279 13.36518,7.44264 13.36518,7.44264 C13.36518,7.44264 13.50018,6.35004 13.50018,5.25744 L13.50018,4.23324 C13.50018,3.14109 13.36518,2.04849 13.36518,2.04849 L13.36518,2.04849 Z" id="Fill-1" fill="#FFFFFF" fill-rule="nonzero" mask="url(#mask-30)"></path>
                </g>
            </g>
        </g>
        <g id="icon-yunojuno" transform="translate(64.000000, 91.000000)">
            <rect id="Rectangle" x="0" y="0" width="27" height="27"></rect>
            <g id="Group-6" transform="translate(7.200000, 6.750000)">
                <g id="Group-3">
                    <g id="Fill-1-Clipped">
                        <mask id="mask-32" fill="white">
                            <use xlink:href="#path-31"></use>
                        </mask>
                        <g id="path-1"></g>
                        <path d="M12.91842,4.3686 L11.77227,2.3805 C11.62287,2.1222 11.29302,2.034 11.03427,2.18295 L8.18442,3.8205 L8.18442,0.54 C8.18442,0.24165 7.94232,0 7.64442,0 L7.64172,0 L5.34942,0 C5.05152,0 4.80942,0.24165 4.80942,0.54 L4.80942,3.8205 L1.95912,2.1816 C1.70082,2.03265 1.37097,2.1213 1.22202,2.37915 L0.07272,4.3686 C-0.07668,4.62645 0.01107,4.9572 0.26937,5.1066 C0.26982,5.1066 0.27027,5.10705 0.27072,5.10705 L3.11967,6.75 L0.27072,8.3952 C0.01197,8.54415 -0.07668,8.8749 0.07227,9.1332 C0.07227,9.1332 0.07272,9.13365 0.07272,9.1341 L1.21932,11.1222 C1.36827,11.38005 1.69812,11.46825 1.95687,11.3193 L4.80717,9.6795 L4.80717,12.96765 C4.81077,13.2642 5.05287,13.50135 5.34942,13.5000114 L7.64172,13.5000114 C7.94007,13.5000114 8.18217,13.25835 8.18217,12.96 L8.18217,7.7256 L12.72132,5.10615 C12.97917,4.95675 13.06737,4.62645 12.91842,4.3686" id="Fill-1" fill="#FFFFFF" fill-rule="nonzero" mask="url(#mask-32)"></path>
                    </g>
                </g>
                <path d="M12.721095,8.395335 L10.818045,7.296435 L9.129645,8.270685 L9.129645,10.220535 L11.032245,11.319435 C11.290095,11.469285 11.620845,11.381535 11.770245,11.123235 C11.770695,11.123235 11.770695,11.122785 11.771145,11.122335 L12.917295,9.134235 C13.067145,8.876385 12.979395,8.545635 12.721545,8.395785 C12.721545,8.395785 12.721095,8.395785 12.721095,8.395335" id="Fill-4" fill="#FFFFFF" fill-rule="nonzero"></path>
            </g>
        </g>
    </g>
</svg>