<svg xmlns="http://www.w3.org/2000/svg" viewBox="0 0 60 60"><defs><style>.cls-1{fill:none;}.cls-2{fill:#fff;fill-rule:evenodd;}</style></defs><title>sio-icon-github</title><g id="Layer_2" data-name="Layer 2"><g id="Layer_1-2" data-name="Layer 1"><rect class="cls-1" width="60" height="60" rx="8" ry="8"/><path class="cls-2" d="M30,15.37A15,15,0,0,0,25.26,44.6c.75.14,1-.33,1-.72s0-1.3,0-2.55c-4.17.91-5.05-2-5.05-2a4,4,0,0,0-1.67-2.19c-1.36-.93.1-.91.1-.91a3.15,3.15,0,0,1,2.3,1.55A3.19,3.19,0,0,0,26.31,39a3.2,3.2,0,0,1,1-2c-3.33-.38-6.83-1.67-6.83-7.41a5.8,5.8,0,0,1,1.54-4,5.4,5.4,0,0,1,.15-4s1.26-.4,4.12,1.54a14.22,14.22,0,0,1,7.51,0c2.86-1.94,4.12-1.54,4.12-1.54a5.39,5.39,0,0,1,.15,4,5.79,5.79,0,0,1,1.54,4c0,5.76-3.51,7-6.85,7.4a3.58,3.58,0,0,1,1,2.78c0,2,0,3.62,0,4.11s.27.87,1,.72A15,15,0,0,0,30,15.37Z"/></g></g></svg>