<svg xmlns="http://www.w3.org/2000/svg" viewBox="0 0 60 60"><defs><style>.cls-1{fill:none;}.cls-2{fill:#fff;}</style></defs><title>sio-icon-tumblr</title><g id="Layer_2" data-name="Layer 2"><g id="Layer_1-2" data-name="Layer 1"><rect class="cls-1" width="60" height="60" rx="8" ry="8"/><path class="cls-2" d="M38.78,43.15c-1,1.08-3.37,1.82-5.47,1.85h-.23c-7.08,0-8.61-5.2-8.61-8.24V28.32H21.67a.58.58,0,0,1-.58-.58h0v-4a1,1,0,0,1,.66-.94A7.46,7.46,0,0,0,26.69,16c0-.64.38-1,.94-1h4.16a.58.58,0,0,1,.58.58v6.75h4.86a.58.58,0,0,1,.59.58V27.7a.58.58,0,0,1-.59.58H32.35v7.8c0,2,1.29,2.5,2.09,2.5a5.86,5.86,0,0,0,1.9-.4,1.26,1.26,0,0,1,.75-.13.62.62,0,0,1,.43.46l1.29,3.77C38.91,42.59,39,42.91,38.78,43.15Z"/></g></g></svg>