<?xml version="1.0" encoding="UTF-8"?>
<svg width="60px" height="60px" viewBox="0 0 60 60" version="1.1" xmlns="http://www.w3.org/2000/svg" xmlns:xlink="http://www.w3.org/1999/xlink">
    <!-- Generator: Sketch 63.1 (92452) - https://sketch.com -->
    <title>icon-yunojuno</title>
    <desc>Created with Sketch.</desc>
    <defs>
        <polygon id="path-1" points="0 0 28.868 0 28.868 30 0 30"></polygon>
    </defs>
    <g id="icon-yunojuno" stroke="none" stroke-width="1" fill="none" fill-rule="evenodd">
        <rect id="Rectangle" x="0" y="0" width="60" height="60"></rect>
        <g id="Group-6" transform="translate(16.000000, 15.000000)">
            <g id="Group-3">
                <mask id="mask-2" fill="white">
                    <use xlink:href="#path-1"></use>
                </mask>
                <g id="Clip-2"></g>
                <path d="M28.7076,9.708 L26.1606,5.29 C25.8286,4.716 25.0956,4.52 24.5206,4.851 L18.1876,8.49 L18.1876,1.2 C18.1876,0.537 17.6496,0 16.9876,0 L16.9816,0 L11.8876,0 C11.2256,0 10.6876,0.537 10.6876,1.2 L10.6876,8.49 L4.3536,4.848 C3.7796,4.517 3.0466,4.714 2.7156,5.287 L0.1616,9.708 C-0.1704,10.281 0.0246,11.016 0.5986,11.348 C0.5996,11.348 0.6006,11.349 0.6016,11.349 L6.9326,15 L0.6016,18.656 C0.0266,18.987 -0.1704,19.722 0.1606,20.296 C0.1606,20.296 0.1616,20.297 0.1616,20.298 L2.7096,24.716 C3.0406,25.289 3.7736,25.485 4.3486,25.154 L10.6826,21.51 L10.6826,28.817 C10.6906,29.476 11.2286,30.003 11.8876,30.0000127 L16.9816,30.0000127 C17.6446,30.0000127 18.1826,29.463 18.1826,28.8 L18.1826,17.168 L28.2696,11.347 C28.8426,11.015 29.0386,10.281 28.7076,9.708" id="Fill-1" fill="#FFFFFF" mask="url(#mask-2)"></path>
            </g>
            <path d="M28.2691,18.6563 L24.0401,16.2143 L20.2881,18.3793 L20.2881,22.7123 L24.5161,25.1543 C25.0891,25.4873 25.8241,25.2923 26.1561,24.7183 C26.1571,24.7183 26.1571,24.7173 26.1581,24.7163 L28.7051,20.2983 C29.0381,19.7253 28.8431,18.9903 28.2701,18.6573 C28.2701,18.6573 28.2691,18.6573 28.2691,18.6563" id="Fill-4" fill="#FFFFFF"></path>
        </g>
    </g>
</svg>