<?xml version="1.0" encoding="UTF-8"?>
<svg width="60px" height="60px" viewBox="0 0 60 60" version="1.1" xmlns="http://www.w3.org/2000/svg" xmlns:xlink="http://www.w3.org/1999/xlink">
    <!-- Generator: Sketch 63.1 (92452) - https://sketch.com -->
    <title>icon-instagram</title>
    <desc>Created with Sketch.</desc>
    <g id="icon-instagram" stroke="none" stroke-width="1" fill="none" fill-rule="evenodd">
        <rect id="Rectangle" x="0" y="0" width="60" height="60"></rect>
        <path d="M30,17.70375 C34.005,17.70375 34.48,17.71875 36.0625,17.79125 C40.1275,17.97625 42.02625,19.905 42.21125,23.94 C42.28375,25.52125 42.2975,25.99625 42.2975,30.00125 C42.2975,34.0075 42.2825,34.48125 42.21125,36.0625 C42.025,40.09375 40.13125,42.02625 36.0625,42.21125 C34.48,42.28375 34.0075,42.29875 30,42.29875 C25.995,42.29875 25.52,42.28375 23.93875,42.21125 C19.86375,42.025 17.975,40.0875 17.79,36.06125 C17.7175,34.48 17.7025,34.00625 17.7025,30 C17.7025,25.995 17.71875,25.52125 17.79,23.93875 C17.97625,19.905 19.87,17.975 23.93875,17.79 C25.52125,17.71875 25.995,17.70375 30,17.70375 L30,17.70375 Z M30,15 C25.92625,15 25.41625,15.0175 23.81625,15.09 C18.36875,15.34 15.34125,18.3625 15.09125,23.815 C15.0175,25.41625 15,25.92625 15,30 C15,34.07375 15.0175,34.585 15.09,36.185 C15.34,41.6325 18.3625,44.66 23.815,44.91 C25.41625,44.9825 25.92625,45 30,45 C34.07375,45 34.585,44.9825 36.185,44.91 C41.6275,44.66 44.6625,41.6375 44.90875,36.185 C44.9825,34.585 45,34.07375 45,30 C45,25.92625 44.9825,25.41625 44.91,23.81625 C44.665,18.37375 41.63875,15.34125 36.18625,15.09125 C34.585,15.0175 34.07375,15 30,15 Z M30,22.2975 C25.74625,22.2975 22.2975,25.74625 22.2975,30 C22.2975,34.25375 25.74625,37.70375 30,37.70375 C34.25375,37.70375 37.7025,34.255 37.7025,30 C37.7025,25.74625 34.25375,22.2975 30,22.2975 Z M30,35 C27.23875,35 25,32.7625 25,30 C25,27.23875 27.23875,25 30,25 C32.76125,25 35,27.23875 35,30 C35,32.7625 32.76125,35 30,35 Z M38.0075,20.19375 C37.0125,20.19375 36.20625,21 36.20625,21.99375 C36.20625,22.9875 37.0125,23.79375 38.0075,23.79375 C39.00125,23.79375 39.80625,22.9875 39.80625,21.99375 C39.80625,21 39.00125,20.19375 38.0075,20.19375 Z" id="Shape" fill="#FFFFFF" fill-rule="nonzero"></path>
    </g>
</svg>