<?xml version="1.0" encoding="UTF-8"?>
<svg width="60px" height="60px" viewBox="0 0 60 60" version="1.1" xmlns="http://www.w3.org/2000/svg" xmlns:xlink="http://www.w3.org/1999/xlink">
    <!-- Generator: Sketch 63.1 (92452) - https://sketch.com -->
    <title>icon-github</title>
    <desc>Created with Sketch.</desc>
    <defs>
        <polygon id="path-1" points="0 0.0002 30 0.0002 30 29.2587982 0 29.2587982"></polygon>
    </defs>
    <g id="icon-github" stroke="none" stroke-width="1" fill="none" fill-rule="evenodd">
        <rect id="Rectangle" x="0" y="0" width="60" height="60"></rect>
        <g id="Group-3" transform="translate(15.000000, 15.000000)">
            <mask id="mask-2" fill="white">
                <use xlink:href="#path-1"></use>
            </mask>
            <g id="Clip-2"></g>
            <path d="M14.999,0.0001 C6.717,0.0001 0,6.7161 0,15.0011 C0,21.6271 4.298,27.2501 10.259,29.2331 C11.009,29.3711 11.282,28.9081 11.282,28.5111 C11.282,28.1541 11.27,27.2111 11.262,25.9591 C7.09,26.8651 6.209,23.9481 6.209,23.9481 C5.527,22.2161 4.544,21.7541 4.544,21.7541 C3.182,20.8231 4.646,20.8431 4.646,20.8431 C6.152,20.9481 6.944,22.3891 6.944,22.3891 C8.282,24.6811 10.455,24.0191 11.31,23.6351 C11.446,22.6651 11.834,22.0041 12.263,21.6291 C8.932,21.2511 5.43,19.9641 5.43,14.2161 C5.43,12.5781 6.015,11.2391 6.974,10.1901 C6.819,9.8121 6.305,8.2861 7.121,6.2211 C7.121,6.2211 8.38,5.8171 11.246,7.7591 C12.442,7.4261 13.726,7.2601 15.001,7.2541 C16.274,7.2601 17.558,7.4261 18.756,7.7591 C21.62,5.8171 22.877,6.2211 22.877,6.2211 C23.695,8.2861 23.181,9.8121 23.026,10.1901 C23.987,11.2391 24.568,12.5781 24.568,14.2161 C24.568,19.9791 21.061,21.2461 17.72,21.6171 C18.258,22.0811 18.737,22.9961 18.737,24.3961 C18.737,26.4001 18.72,28.0191 18.72,28.5111 C18.72,28.9111 18.989,29.3781 19.751,29.2311 C25.706,27.2441 30,21.6261 30,15.0011 C30,6.7161 23.283,0.0001 14.999,0.0001" id="Fill-1" fill="#FFFFFF" mask="url(#mask-2)"></path>
        </g>
    </g>
</svg>