<?xml version="1.0" encoding="UTF-8"?>
<svg width="60px" height="60px" viewBox="0 0 60 60" version="1.1" xmlns="http://www.w3.org/2000/svg" xmlns:xlink="http://www.w3.org/1999/xlink">
    <!-- Generator: Sketch 63.1 (92452) - https://sketch.com -->
    <title>icon-vimeo</title>
    <desc>Created with Sketch.</desc>
    <defs>
        <polygon id="path-1" points="0.0004 0.0001 29.9999698 0.0001 29.9999698 26.0001 0.0004 26.0001"></polygon>
    </defs>
    <g id="icon-vimeo" stroke="none" stroke-width="1" fill="none" fill-rule="evenodd">
        <rect id="Rectangle" x="0" y="0" width="60" height="60"></rect>
        <g id="Group-3" transform="translate(15.000000, 17.000000)">
            <mask id="mask-2" fill="white">
                <use xlink:href="#path-1"></use>
            </mask>
            <g id="Clip-2"></g>
            <path d="M29.9854,6.0152 C29.8524,8.9412 27.8124,12.9482 23.8674,18.0332 C19.7884,23.3442 16.3374,26.0002 13.5144,26.0002 C11.7664,26.0002 10.2854,24.3832 9.0774,21.1482 C8.2704,18.1822 7.4634,15.2172 6.6554,12.2512 C5.7574,9.0182 4.7954,7.3992 3.7654,7.3992 C3.5414,7.3992 2.7564,7.8722 1.4114,8.8152 L0.0004,6.9942 C1.4804,5.6902 2.9414,4.3862 4.3784,3.0812 C6.3524,1.3712 7.8354,0.4732 8.8234,0.3822 C11.1584,0.1572 12.5954,1.7562 13.1344,5.1792 C13.7174,8.8722 14.1204,11.1692 14.3474,12.0682 C15.0204,15.1322 15.7604,16.6622 16.5694,16.6622 C17.1974,16.6622 18.1404,15.6682 19.3984,13.6812 C20.6544,11.6942 21.3274,10.1812 21.4184,9.1422 C21.5974,7.4272 20.9244,6.5672 19.3984,6.5672 C18.6804,6.5672 17.9404,6.7332 17.1784,7.0602 C18.6524,2.2212 21.4694,-0.1288 25.6274,0.0052 C28.7104,0.0962 30.1634,2.0992 29.9854,6.0152" id="Fill-1" fill="#FFFFFF" mask="url(#mask-2)"></path>
        </g>
    </g>
</svg>