<?xml version="1.0" encoding="UTF-8"?>
<svg width="60px" height="60px" viewBox="0 0 60 60" version="1.1" xmlns="http://www.w3.org/2000/svg" xmlns:xlink="http://www.w3.org/1999/xlink">
    <!-- Generator: Sketch 63.1 (92452) - https://sketch.com -->
    <title>icon-whatsapp</title>
    <desc>Created with Sketch.</desc>
    <defs>
        <polygon id="path-1" points="0 0 29.8565019 0 29.8565019 29.9992 0 29.9992"></polygon>
    </defs>
    <g id="icon-whatsapp" stroke="none" stroke-width="1" fill="none" fill-rule="evenodd">
        <rect id="Rectangle" x="0" y="0" width="60" height="60"></rect>
        <g id="Group-3" transform="translate(15.000000, 15.000000)">
            <mask id="mask-2" fill="white">
                <use xlink:href="#path-1"></use>
            </mask>
            <g id="Clip-2"></g>
            <path d="M21.7685,17.9772 C21.3965,17.7912 19.5705,16.8932 19.2305,16.7692 C18.8895,16.6452 18.6415,16.5832 18.3945,16.9552 C18.1465,17.3272 17.4345,18.1642 17.2175,18.4122 C17.0015,18.6592 16.7855,18.6902 16.4135,18.5042 C16.0415,18.3192 14.8445,17.9262 13.4265,16.6612 C12.3225,15.6752 11.5775,14.4592 11.3605,14.0872 C11.1435,13.7152 11.3365,13.5152 11.5225,13.3302 C11.6905,13.1632 11.8945,12.8962 12.0805,12.6782 C12.2655,12.4612 12.3275,12.3072 12.4515,12.0592 C12.5755,11.8112 12.5135,11.5942 12.4205,11.4092 C12.3275,11.2222 11.5845,9.3942 11.2755,8.6502 C10.9735,7.9262 10.6675,8.0242 10.4395,8.0122 C10.2235,8.0012 9.9755,7.9992 9.7275,7.9992 C9.4805,7.9992 9.0775,8.0922 8.7375,8.4642 C8.3965,8.8362 7.4375,9.7352 7.4375,11.5632 C7.4375,13.3912 8.7685,15.1582 8.9545,15.4062 C9.1395,15.6542 11.5735,19.4062 15.2985,21.0142 C16.1855,21.3972 16.8765,21.6252 17.4165,21.7962 C18.3065,22.0802 19.1165,22.0392 19.7555,21.9442 C20.4695,21.8372 21.9545,21.0452 22.2635,20.1782 C22.5735,19.3102 22.5735,18.5662 22.4805,18.4122 C22.3875,18.2562 22.1395,18.1642 21.7685,17.9772 M14.9915,27.2312 L14.9855,27.2312 C12.7685,27.2312 10.5935,26.6352 8.6975,25.5092 L8.2465,25.2422 L3.5695,26.4682 L4.8175,21.9092 L4.5235,21.4412 C3.2875,19.4742 2.6335,17.2002 2.63449885,14.8662 C2.6375,8.0532 8.1805,2.5102 14.9965,2.5102 C18.2955,2.5122 21.3985,3.7982 23.7315,6.1342 C26.0635,8.4692 27.3475,11.5742 27.3465006,14.8752 C27.3435,21.6882 21.8005,27.2312 14.9915,27.2312 M25.5065,4.3602 C22.7005,1.5492 18.9675,0.0012 14.9905,-0.0008 C6.7965,-0.0008 0.1275,6.6682 0.1245,14.8652 C0.1235,17.4852 0.8075,20.0412 2.1095,22.2962 L-0.0005,29.9992 L7.8805,27.9322 C10.0515,29.1172 12.4975,29.7412 14.9845,29.7422 L14.9915,29.7422 C14.9915,29.7422 14.9905,29.7422 14.9915,29.7422 C23.1835,29.7422 29.8535,23.0732 29.8565019,14.8762 C29.8585,10.9052 28.3135,7.1692 25.5065,4.3602" id="Fill-1" fill="#FFFFFF" mask="url(#mask-2)"></path>
        </g>
    </g>
</svg>