<svg xmlns="http://www.w3.org/2000/svg" viewBox="0 0 60 60"><defs><style>.cls-1{fill:none;}.cls-2{fill:#fff;}</style></defs><title>sio-icon-behance</title><g id="Layer_2" data-name="Layer 2"><g id="Layer_1-2" data-name="Layer 1"><rect class="cls-1" width="60" height="60" rx="8" ry="8"/><path id="Behance" class="cls-2" d="M42.09,23.31H34.58V21.44h7.52v1.87ZM29.57,31a4.94,4.94,0,0,1,.73,2.73,5.45,5.45,0,0,1-.83,3,5.16,5.16,0,0,1-1.32,1.47,5.1,5.1,0,0,1-2.11.94,13,13,0,0,1-2.64.25H15V20.67h9c2.27,0,3.88.7,4.83,2a4.75,4.75,0,0,1,.85,2.85,4.16,4.16,0,0,1-.86,2.75,4.4,4.4,0,0,1-1.42,1.06A4.14,4.14,0,0,1,29.57,31ZM19.3,28h3.95a3.74,3.74,0,0,0,2-.46A1.76,1.76,0,0,0,26,25.92a1.67,1.67,0,0,0-1-1.72,7.05,7.05,0,0,0-2.2-.29H19.3Zm7.06,5.41a2,2,0,0,0-1.19-2,4.68,4.68,0,0,0-1.87-.32h-4v5h3.94a4.38,4.38,0,0,0,1.89-.33A2.35,2.35,0,0,0,26.37,33.43Zm18.52-3A17.56,17.56,0,0,1,45,33.05H35.26a3.2,3.2,0,0,0,1.4,2.82,3.52,3.52,0,0,0,1.93.5,2.72,2.72,0,0,0,2.66-1.53h3.57a4.35,4.35,0,0,1-1.3,2.42,6.49,6.49,0,0,1-5,2,7.3,7.3,0,0,1-4.71-1.65q-2-1.65-2-5.36a7.24,7.24,0,0,1,1.84-5.33A6.45,6.45,0,0,1,38.36,25a7.62,7.62,0,0,1,3.14.63,5.42,5.42,0,0,1,2.31,2A6.6,6.6,0,0,1,44.88,30.4Zm-3.51.35a2.92,2.92,0,0,0-.93-2.11,3,3,0,0,0-2.07-.72,2.77,2.77,0,0,0-2.09.77,3.6,3.6,0,0,0-.93,2.07h6Z"/></g></g></svg>