<svg xmlns="http://www.w3.org/2000/svg" viewBox="0 0 60 60"><defs><style>.cls-1{fill:none;}.cls-2{fill:#fff;}</style></defs><title>sio-icon-yunojuno</title><g id="Layer_2" data-name="Layer 2"><g id="Layer_1-2" data-name="Layer 1"><rect class="cls-1" width="60" height="60" rx="8" ry="8"/><g id="Layer_2-2" data-name="Layer 2"><g id="Layer_1-2-2" data-name="Layer 1-2"><path class="cls-2" d="M44.27,24.71l-2.55-4.42a1.2,1.2,0,0,0-1.64-.44l-6.33,3.64V16.2a1.2,1.2,0,0,0-1.2-1.2h-5.1a1.2,1.2,0,0,0-1.2,1.2v7.29l-6.33-3.64a1.2,1.2,0,0,0-1.64.44l-2.55,4.42a1.2,1.2,0,0,0,.44,1.64h0L22.5,30l-6.33,3.66a1.2,1.2,0,0,0-.44,1.64h0l2.55,4.42a1.2,1.2,0,0,0,1.64.44l6.33-3.65v7.31A1.2,1.2,0,0,0,27.45,45h5.09a1.2,1.2,0,0,0,1.2-1.2V32.17l10.09-5.82A1.2,1.2,0,0,0,44.27,24.71Z"/><path class="cls-2" d="M43.83,33.66l-4.23-2.44-3.75,2.17v4.33l4.23,2.44a1.2,1.2,0,0,0,1.64-.44h0l2.55-4.42a1.2,1.2,0,0,0-.43-1.64Z"/></g></g></g></g></svg>